
<?xml version="1.0" encoding="utf-8"?>
<!-- Generator: Adobe Illustrator 27.5.0, SVG Export Plug-In . SVG Version: 6.00 Build 0)  -->
<svg version="1.1" id="Layer_1" xmlns="http://www.w3.org/2000/svg" xmlns:xlink="http://www.w3.org/1999/xlink" x="0px" y="0px"
	 viewBox="0 0 5000 5000" style="enable-background:new 0 0 5000 5000;" xml:space="preserve">
<g>
	<defs>
		<rect id="XMLID_00000181803963729611263200000008049010789190233487_" x="427" y="1426" width="4053" height="1935"/>
	</defs>
	<use xlink:href="#XMLID_00000181803963729611263200000008049010789190233487_"  style="overflow:visible;fill:#FFFFFF;"/>
	<clipPath id="XMLID_00000116917885205907339870000000040920888180437124_">
		<use xlink:href="#XMLID_00000181803963729611263200000008049010789190233487_"  style="overflow:visible;"/>
	</clipPath>
	<g style="clip-path:url(#XMLID_00000116917885205907339870000000040920888180437124_);">
		<g>
			
				<rect x="1498.849" y="3690.116" transform="matrix(0.7038 -0.7104 0.7104 0.7038 -2209.6099 2176.8186)" width="13.448" height="95.988"/>
			<polygon points="425.075,4307.014 373,4254.938 373,4273.952 415.568,4316.521 			"/>
			<polygon points="430.857,3179.876 373,3144.581 373,3160.329 423.855,3191.356 			"/>
			<polygon points="410.5,3981.726 373,4004.553 373,4020.296 417.492,3993.215 			"/>
			<rect x="373" y="3378.087" width="92.485" height="13.446"/>
			<polygon points="2229.867,4453.756 2241.135,4474 2256.519,4474 2241.622,4447.22 			"/>
			
				<rect x="501.622" y="2447.566" transform="matrix(0.6497 -0.7602 0.7602 0.6497 -1719.0217 1260.6212)" width="13.444" height="95.987"/>
			
				<rect x="698.476" y="3083.461" transform="matrix(0.4021 -0.9156 0.9156 0.4021 -2383.0403 2531.0686)" width="95.99" height="13.445"/>
			
				<rect x="819.011" y="3109.021" transform="matrix(0.9146 -0.4044 0.4044 0.9146 -1186.0665 616.8531)" width="95.988" height="13.447"/>
			
				<rect x="527.761" y="4154.874" transform="matrix(0.6819 -0.7315 0.7315 0.6819 -2858.26 1751.2405)" width="112.819" height="13.446"/>
			
				<rect x="900.203" y="2509.907" transform="matrix(0.9533 -0.302 0.302 0.9533 -715.6716 403.8012)" width="95.988" height="13.446"/>
			
				<rect x="975.354" y="3343.542" transform="matrix(0.3709 -0.9287 0.9287 0.3709 -2531.8181 3045.8132)" width="13.446" height="95.986"/>
			
				<rect x="586.8" y="3454.123" transform="matrix(0.3874 -0.9219 0.9219 0.3874 -2801.6997 2705.2451)" width="95.987" height="13.446"/>
			<polygon points="982.077,4469.926 987.756,4474 1010.833,4474 989.909,4459 			"/>
			<polygon points="1449.591,4111.912 1388.825,4172.586 1313.772,4130.917 1242.407,4195.109 1251.398,4205.104 1315.624,4147.328 
				1391.164,4189.263 1391.176,4189.249 1459.104,4121.421 			"/>
			<polygon points="487.565,3681.084 487.576,3681.072 566.695,3626.713 559.069,3615.63 488.292,3664.254 422.059,3609.649 
				373,3639.713 373,3655.481 420.9,3626.117 			"/>
			<polygon points="1479.193,2943.787 1393.429,2939.504 1373.905,2855.913 1278.416,2846.137 1277.049,2859.509 1362.99,2868.304 
				1382.644,2952.44 1382.655,2952.434 1478.534,2957.222 			"/>
			<polygon points="2284.541,3162.743 2217.688,3217.477 2217.699,3217.489 2255.67,3305.652 2268.021,3300.319 2234.053,3221.454 
				2300.476,3167.073 2267.149,3077.06 2254.541,3081.727 			"/>
			<polygon points="810.18,2897.37 810.188,2897.353 870.814,2822.925 860.378,2814.439 806.143,2881.017 727.217,2847.249 
				662.8,2918.408 672.767,2927.428 730.744,2863.385 			"/>
			<polygon points="2040.702,4136.393 2033.919,4124.782 1959.33,4168.366 1893.837,4112.009 1893.825,4112.023 1813.58,4164.699 
				1820.972,4175.94 1892.759,4128.818 1957.822,4184.811 			"/>
			<polygon points="2005.117,3816.266 1938.264,3871 1938.275,3871.011 1976.252,3959.175 1988.603,3953.845 1954.634,3874.979 
				2021.052,3820.598 1987.725,3730.583 1975.122,3735.25 			"/>
			<polygon points="1972.031,4462.693 1955.581,4474 1979.331,4474 1979.657,4473.773 			"/>
			<polygon points="1806.814,4474 1832.531,4474 1833.868,4473.18 1834.86,4474 1855.995,4474 1835.026,4456.709 			"/>
			
				<rect x="1258.087" y="2935.725" transform="matrix(0.9488 -0.3159 0.3159 0.9488 -877.6639 552.2326)" width="13.447" height="95.984"/>
			
				<rect x="1503.827" y="2626.41" transform="matrix(0.0658 -0.9978 0.9978 0.0658 -1177.676 4008.4148)" width="95.989" height="13.45"/>
			
				<rect x="1655.892" y="2983.843" transform="matrix(0.7376 -0.6753 0.6753 0.7376 -1610.9626 1918.2809)" width="13.448" height="95.988"/>
			
				<rect x="1185.364" y="4028.756" transform="matrix(0.8739 -0.4861 0.4861 0.8739 -1806.0103 1108.2767)" width="95.984" height="13.448"/>
			
				<rect x="1270.324" y="4268.53" transform="matrix(0.9933 -0.1158 0.1158 0.9933 -491.3813 176.9724)" width="13.451" height="95.987"/>
			
				<rect x="1529.585" y="4309.8" transform="matrix(0.9359 -0.3522 0.3522 0.9359 -1419.2192 832.2257)" width="95.988" height="13.447"/>
			
				<rect x="1630.688" y="4413.031" transform="matrix(0.4658 -0.8849 0.8849 0.4658 -3014.2595 3846.605)" width="95.989" height="13.447"/>
			
				<rect x="1150.066" y="3343.384" transform="matrix(0.8739 -0.4861 0.4861 0.8739 -1477.3544 1004.7449)" width="95.989" height="13.449"/>
			
				<rect x="1157.729" y="3463.394" transform="matrix(0.9548 -0.2971 0.2971 0.9548 -990.6611 504.5162)" width="13.45" height="95.987"/>
			
				<rect x="1109.65" y="3624.412" transform="matrix(0.9747 -0.2234 0.2234 0.9747 -781.9915 350.4194)" width="95.989" height="13.448"/>
			
				<rect x="1041.276" y="4332.991" transform="matrix(0.9747 -0.2235 0.2235 0.9747 -942.5432 353.3165)" width="95.985" height="13.448"/>
			
				<rect x="1894.214" y="3065.052" transform="matrix(0.8383 -0.5453 0.5453 0.8383 -1360.8147 1555.854)" width="95.987" height="13.446"/>
			
				<rect x="1760.325" y="3065.05" transform="matrix(0.2877 -0.9577 0.9577 0.2877 -1653.8765 3919.7209)" width="95.992" height="13.449"/>
			
				<rect x="931.128" y="3863.188" transform="matrix(0.553 -0.8332 0.8332 0.553 -2839.4541 2529.5654)" width="13.448" height="95.987"/>
			<polygon points="1564.266,3918.976 1595.565,3842.602 1671.942,3873.901 1677.039,3861.461 1588.222,3825.059 1551.823,3913.879 
							"/>
			<polygon points="547.004,3296.222 626.449,3273.828 622.801,3260.886 530.414,3286.927 556.454,3379.314 569.397,3375.664 			"/>
			<rect x="1467.054" y="4465.353" width="13.446" height="8.647"/>
			<polygon points="2276.8,2672.109 2198.416,2697.976 2202.631,2710.745 2293.784,2680.67 2263.709,2589.517 2250.939,2593.725 			
				"/>
			<polygon points="2125.909,2889.457 2054.32,2953.397 2118.254,3024.986 2128.283,3016.03 2073.3,2954.469 2134.866,2899.486 			
				"/>
			<polygon points="2316.422,3867.852 2326.451,3858.896 2271.467,3797.335 2333.028,3742.352 2324.071,3732.323 2252.482,3796.263 
							"/>
			<polygon points="1174.929,2679.197 1175.158,2596.656 1257.699,2596.885 1257.734,2583.438 1161.752,2583.169 1161.483,2679.156 
							"/>
			<polygon points="1662.615,4159.811 1662.564,4146.364 1580.023,4146.697 1579.69,4064.156 1566.244,4064.21 1566.631,4160.195 
							"/>
			<polygon points="948.197,3705.011 956.363,3715.694 1032.616,3657.396 974.322,3581.143 963.639,3589.308 1013.769,3654.882 			
				"/>
			<polygon points="1375.078,3772.294 1297.734,3801.116 1302.428,3813.714 1392.371,3780.199 1358.856,3690.255 1346.255,3694.948 
							"/>
			<polygon points="1755.3,2631.69 1784.483,2554.476 1771.906,2549.728 1737.972,2639.511 1827.755,2673.445 1832.511,2660.871 			
				"/>
			<polygon points="985.901,3303.848 992.817,3292.314 922.025,3249.872 964.468,3179.082 952.937,3172.167 903.578,3254.49 			"/>
			<polygon points="543.704,2704.363 594.748,2639.5 584.182,2631.186 524.822,2706.616 600.252,2765.975 608.568,2755.407 			"/>
			<polygon points="1649.212,3201.889 1639.777,3211.468 1698.579,3269.393 1640.654,3328.192 1650.233,3337.631 1717.593,3269.25 
							"/>
			<polygon points="696.722,4268.232 692.177,4350.647 609.763,4346.097 609.022,4359.526 704.863,4364.813 710.15,4268.972 			"/>
			<polygon points="1027.358,3187.147 1122.75,3197.838 1133.438,3102.45 1120.077,3100.953 1110.883,3182.978 1028.858,3173.784 
							"/>
			<polygon points="1630.648,3490.373 1579.501,3571.595 1660.723,3622.746 1667.888,3611.364 1598.045,3567.384 1642.027,3497.538 
							"/>
			<polygon points="1682.925,2874.199 1682.925,2860.753 1600.387,2860.753 1600.387,2778.211 1586.941,2778.211 1586.941,2874.199 
							"/>
			<polygon points="2035.621,3250.918 1997.749,3234.504 2014.159,3196.646 2001.82,3191.298 1985.409,3229.157 1947.553,3212.749 
				1942.203,3225.086 1980.065,3241.494 1963.648,3279.367 1975.988,3284.714 1992.404,3246.841 2030.277,3263.257 			"/>
			<polygon points="1481.386,3095.581 1505.653,3128.953 1472.269,3153.227 1480.177,3164.105 1513.563,3139.83 1537.838,3173.213 
				1548.712,3165.306 1524.437,3131.923 1557.809,3107.654 1549.902,3096.779 1516.527,3121.045 1492.261,3087.673 			"/>
			<polygon points="2028.356,2578.593 1987.238,2581.977 1988.339,2595.377 2029.457,2591.994 2032.841,2633.135 2046.241,2632.034 
				2042.864,2590.893 2084,2587.515 2082.899,2574.109 2041.763,2577.492 2038.38,2536.368 2024.979,2537.469 			"/>
			<polygon points="1474.107,3917.898 1474.107,3904.452 1432.831,3904.452 1432.831,3863.187 1419.384,3863.187 1419.384,3904.452 
				1378.12,3904.452 1378.12,3917.898 1419.384,3917.898 1419.384,3959.175 1432.831,3959.175 1432.831,3917.898 			"/>
			<polygon points="1907.684,4268.528 1907.684,4309.792 1866.425,4309.792 1866.425,4323.239 1907.684,4323.239 1907.684,4364.515 
				1921.131,4364.515 1921.131,4323.239 1962.41,4323.239 1962.41,4309.792 1921.131,4309.792 1921.131,4268.528 			"/>
			<polygon points="2179.889,4081.676 2173.014,4093.23 2208.468,4114.337 2187.355,4149.805 2198.909,4156.683 2220.022,4121.215 
				2255.492,4142.328 2262.367,4130.773 2226.902,4109.661 2248.01,4074.205 2236.455,4067.327 2215.349,4102.783 			"/>
			<polygon points="386.65,3479.177 373,3492.827 373,3511.844 396.157,3488.684 			"/>
			<polygon points="396.168,3547.051 373,3523.88 373,3542.9 386.66,3556.558 			"/>
			<polygon points="782.533,4076.808 766.071,4038.955 803.921,4022.492 798.557,4010.162 760.704,4026.627 744.247,3988.788 
				731.916,3994.149 748.376,4031.988 710.537,4048.448 715.901,4060.779 753.737,4044.319 770.205,4082.172 			"/>
			<polygon points="398.734,4451.767 412.18,4451.767 412.18,4410.49 453.458,4410.49 453.458,4397.044 412.18,4397.044 
				412.18,4355.779 398.734,4355.779 398.734,4397.044 373,4397.044 373,4410.49 398.734,4410.49 			"/>
			<polygon points="1068.913,4200.903 1054.119,4162.368 1092.646,4147.58 1087.824,4135.028 1049.302,4149.816 1034.515,4111.295 
				1021.963,4116.111 1036.751,4154.633 998.215,4169.426 1003.035,4181.979 1041.567,4167.188 1056.361,4205.723 			"/>
			<polygon points="712.289,2668.72 719.003,2680.372 754.752,2659.764 775.366,2695.527 787.017,2688.813 766.401,2653.049 
				802.161,2632.436 795.446,2620.784 759.686,2641.398 739.081,2605.652 727.429,2612.367 748.037,2648.113 			"/>
			<polygon points="1368.065,3576.951 1334.693,3552.659 1358.977,3519.298 1348.105,3511.385 1323.821,3544.746 1290.464,3520.462 
				1282.548,3531.334 1315.908,3555.617 1291.616,3588.99 1302.488,3596.902 1326.78,3563.531 1360.152,3587.823 			"/>
			<polygon points="860.826,3513.134 902.09,3512.042 901.732,3498.601 860.47,3499.694 859.375,3458.449 845.934,3458.805 
				847.029,3500.052 805.782,3501.144 806.14,3514.585 847.385,3513.493 848.48,3554.758 861.921,3554.402 			"/>
			<polygon points="1441.965,2697.752 1439.872,2684.472 1399.094,2690.894 1392.678,2650.131 1379.393,2652.224 1385.812,2692.981 
				1345.052,2699.403 1347.144,2712.683 1387.905,2706.267 1394.324,2747.042 1407.61,2744.948 1401.188,2704.174 			"/>
			<polygon points="1218.754,4444.682 1238.921,4408.684 1227.189,4402.113 1207.022,4438.111 1171.024,4417.944 1164.453,4429.676 
				1200.451,4449.843 1186.922,4474 1202.332,4474 1212.183,4456.414 1243.577,4474 1249.646,4474 1254.769,4464.854 			"/>
			<path d="M1889.066,2873.344l88.923-36.147l-36.142-88.917l-88.923,36.142L1889.066,2873.344z M1960.472,2829.806l-63.997,26.009
				l-26.015-64.009l63.992-26.01L1960.472,2829.806z"/>
			<path d="M1782.144,3483.26l95.936-3.085l-3.082-95.936l-95.939,3.085L1782.144,3483.26z M1864.212,3467.17l-69.043,2.219
				l-2.222-69.06l69.043-2.219L1864.212,3467.17z"/>
			<path d="M1440.663,3476.528l88.923-36.144l-36.144-88.923l-88.923,36.147L1440.663,3476.528z M1512.066,3432.99l-63.995,26.012
				l-26.018-64.009l63.995-26.012L1512.066,3432.99z"/>
			<path d="M1200.841,3873.052v-95.987h-95.987v95.987H1200.841z M1118.317,3859.606v-69.095h69.078v69.095H1118.317z"/>
			<path d="M2095.852,3877.872l18.28,94.23l94.233-18.286l-18.286-94.227L2095.852,3877.872z M2124.785,3956.336l-13.159-67.831
				l67.816-13.156l13.159,67.83L2124.785,3956.336z"/>
			<path d="M1788.067,4083.474v-95.988h-95.987v95.988H1788.067z M1705.543,4070.028v-69.095h69.078v69.095H1705.543z"/>
			<path d="M740.899,3373.296l73.217-62.074l-62.076-73.215l-73.213,62.073L740.899,3373.296z M795.162,3309.66l-52.693,44.674
				l-44.681-52.704l52.691-44.671L795.162,3309.66z"/>
			<path d="M946.377,2724.57l89.066-35.792l-35.792-89.061l-89.066,35.792L946.377,2724.57z M1017.955,2681.318l-64.101,25.757
				l-25.763-64.112l64.098-25.757L1017.955,2681.318z"/>
			<polygon points="2130.233,4368.041 2062.359,4435.915 2100.445,4474 2119.482,4474 2081.385,4435.903 2130.233,4387.055 
				2179.092,4435.912 2141.007,4474 2160.021,4474 2198.106,4435.912 			"/>
			<path d="M2380.414,2937.583l39.112-87.656l-87.65-39.117l-39.117,87.656L2380.414,2937.583z M2338.687,2828.573l63.08,28.154
				l-28.154,63.097l-63.086-28.154L2338.687,2828.573z"/>
			<path d="M532.024,2999.046l-23.68,93.02l93.021,23.679l23.679-93.023L532.024,2999.046z M591.652,3099.396l-66.945-17.042
				l17.046-66.962l66.943,17.042L591.652,3099.396z"/>
			<path d="M766.639,4169.942l8.349,95.626l95.623-8.348l-8.346-95.624L766.639,4169.942z M856.046,4244.995l-68.817,6.003
				l-6.009-68.831l68.82-6.006L856.046,4244.995z"/>
			<polygon points="624.385,4451.767 624.385,4474 637.847,4474 637.847,4465.21 706.924,4465.21 706.924,4474 720.371,4474 
				720.371,4451.767 			"/>
			<polygon points="2124.522,3444.464 2122.119,3526.953 2218.066,3529.751 2218.456,3516.311 2135.95,3513.908 2138.358,3431.402 
				2042.411,3428.604 2042.015,3442.058 			"/>
			<polygon points="1401.99,3153.399 1391.657,3144.798 1338.847,3208.234 1275.412,3155.424 1214,3229.195 1224.345,3237.807 
				1277.152,3174.372 1340.579,3227.171 			"/>
			<polygon points="1842.907,3833.293 1842.781,3819.85 1760.243,3820.644 1759.446,3738.108 1663.464,3739.031 1663.593,3752.492 
				1746.131,3751.698 1746.926,3834.222 			"/>
			<polygon points="1039.389,2941.711 1068.827,2864.6 979.158,2830.362 974.356,2842.937 1051.464,2872.381 1022.031,2949.475 
				1111.706,2983.713 1116.502,2971.15 			"/>
			<polygon points="644.905,3907.841 563.427,3894.641 576.622,3813.167 481.872,3797.817 479.72,3811.102 561.197,3824.302 
				548.002,3905.765 642.754,3921.112 			"/>
			<polygon points="744.551,3757.698 808.348,3705.327 747.441,3631.137 737.039,3639.678 789.411,3703.475 725.626,3755.838 
				786.53,3830.028 796.923,3821.498 			"/>
			<polygon points="494.875,4102.826 483.682,4095.377 437.949,4164.088 373,4120.862 373,4137.012 441.692,4182.735 			"/>
			<polygon points="417.295,2601.483 373,2562.595 373,2580.485 408.426,2611.587 			"/>
			<polygon points="373,2452.766 373,2470.673 390.734,2486.241 373,2506.442 373,2526.827 409.719,2484.997 			"/>
			<polygon points="378.654,2948.477 460.924,2941.809 453.166,2846.137 439.749,2847.22 446.421,2929.492 373,2935.444 
				373,3031.747 385.324,3030.749 			"/>
			<polygon points="2428.195,4248.647 2453.499,4273.955 2453.499,4254.938 2437.702,4239.141 			"/>
			<polygon points="2422.409,3141.364 2453.499,3160.329 2453.499,3144.581 2429.417,3129.887 			"/>
			<polygon points="2415.999,4043.123 2453.499,4020.296 2453.499,4004.553 2409.009,4031.638 			"/>
			<rect x="2449.996" y="3378.087" width="3.503" height="13.446"/>
			
				<rect x="2204.056" y="3602.925" transform="matrix(0.8983 -0.4394 0.4394 0.8983 -1357.1046 1356.807)" width="95.985" height="13.445"/>
			<rect x="2214.374" y="4309.801" width="95.987" height="13.446"/>
			
				<rect x="1894.195" y="3597.371" transform="matrix(0.4646 -0.8855 0.8855 0.4646 -2210.2944 3634.8826)" width="13.445" height="95.987"/>
			<polygon points="2427.742,3671.267 2453.499,3655.481 2453.499,3639.713 2420.718,3659.805 			"/>
			<polygon points="2408.797,3479.177 2399.284,3488.684 2428.465,3517.862 2399.273,3547.051 2408.786,3556.558 2437.972,3527.372 
				2453.499,3542.9 2453.499,3523.88 2447.479,3517.862 2453.499,3511.844 2453.499,3492.827 2437.972,3508.355 			"/>
			<rect x="2437.972" y="4397.044" width="15.528" height="13.446"/>
			<polygon points="2396.555,4198.263 2407.759,4205.723 2453.488,4137.009 2453.499,4137.015 2453.499,4120.862 2449.738,4118.359 
							"/>
			<polygon points="2409.204,2431.791 2453.499,2470.673 2453.499,2452.766 2418.08,2421.676 			"/>
			<polygon points="2453.499,2580.485 2453.499,2562.595 2435.764,2547.028 2453.499,2526.827 2453.499,2506.442 2416.79,2548.26 
							"/>
			<polygon points="2452.421,3031.833 2453.499,3031.747 2453.499,2935.444 2444.663,2936.161 			"/>
			<polygon points="2288.291,2450.593 2256.519,2393.499 2241.135,2393.499 2276.542,2457.13 			"/>
			<polygon points="1067.921,2434.423 1010.836,2393.499 987.759,2393.499 1060.088,2445.352 			"/>
			<polygon points="1900.54,2447.634 1979.331,2393.499 1955.575,2393.499 1901.257,2430.816 1855.998,2393.499 1834.86,2393.499 
				1900.528,2447.646 			"/>
			<polygon points="1760.211,2437.829 1832.531,2393.499 1806.811,2393.499 1753.187,2426.367 			"/>
			<polygon points="1563.039,2480.84 1563.039,2467.394 1480.5,2467.394 1480.5,2393.499 1467.054,2393.499 1467.054,2480.84 			"/>
			<polygon points="1192.011,2411.923 1202.332,2393.499 1186.919,2393.499 1180.279,2405.351 			"/>
			<polygon points="1249.643,2393.499 1243.579,2393.499 1248.198,2396.085 			"/>
			<polygon points="2160.021,2393.499 2141.007,2393.499 2130.244,2404.256 2119.487,2393.499 2100.445,2393.499 2130.233,2423.288 
							"/>
			<polygon points="720.371,2467.25 720.371,2393.499 706.924,2393.499 706.924,2453.804 637.847,2453.804 637.847,2393.499 
				624.385,2393.499 624.385,2467.25 			"/>
		</g>
		<g>
			
				<rect x="3579.349" y="3690.117" transform="matrix(0.7039 -0.7103 0.7103 0.7039 -1593.3395 3654.022)" width="13.449" height="95.986"/>
			<polygon points="2505.576,4307.014 2453.499,4254.938 2453.499,4273.952 2496.069,4316.521 			"/>
			<polygon points="2511.356,3179.876 2453.499,3144.581 2453.499,3160.329 2504.354,3191.356 			"/>
			<polygon points="2491,3981.726 2453.499,4004.553 2453.499,4020.296 2497.99,3993.215 			"/>
			<rect x="2453.499" y="3378.087" width="92.484" height="13.446"/>
			<polygon points="4310.368,4453.756 4321.635,4474 4337.02,4474 4322.123,4447.22 			"/>
			
				<rect x="2582.12" y="2447.567" transform="matrix(0.6497 -0.7602 0.7602 0.6497 -990.2372 2842.127)" width="13.445" height="95.985"/>
			
				<rect x="2778.972" y="3083.46" transform="matrix(0.4021 -0.9156 0.9156 0.4021 -1139.0896 4436.0552)" width="95.99" height="13.446"/>
			
				<rect x="2899.51" y="3109.021" transform="matrix(0.9146 -0.4044 0.4044 0.9146 -1008.3176 1458.3002)" width="95.985" height="13.447"/>
			
				<rect x="2608.26" y="4154.874" transform="matrix(0.6819 -0.7315 0.7315 0.6819 -2196.3884 3273.0757)" width="112.819" height="13.445"/>
			
				<rect x="2980.704" y="2509.907" transform="matrix(0.9533 -0.302 0.302 0.9533 -618.578 1032.1034)" width="95.984" height="13.446"/>
			
				<rect x="3055.853" y="3343.542" transform="matrix(0.3709 -0.9287 0.9287 0.3709 -1222.8838 4977.9507)" width="13.444" height="95.986"/>
			
				<rect x="2667.298" y="3454.122" transform="matrix(0.3875 -0.9219 0.9219 0.3875 -1527.275 4623.1245)" width="95.988" height="13.447"/>
			<polygon points="3062.578,4469.926 3068.254,4474 3091.334,4474 3070.41,4459 			"/>
			<polygon points="3530.089,4111.912 3469.326,4172.586 3394.273,4130.917 3322.908,4195.109 3331.899,4205.104 3396.125,4147.328 
				3471.665,4189.263 3471.677,4189.249 3539.602,4121.421 			"/>
			<polygon points="2568.065,3681.084 2568.076,3681.072 2647.194,3626.713 2639.568,3615.63 2568.793,3664.254 2502.56,3609.649 
				2453.499,3639.713 2453.499,3655.481 2501.401,3626.117 			"/>
			<polygon points="3559.694,2943.787 3473.93,2939.504 3454.406,2855.913 3358.917,2846.137 3357.547,2859.509 3443.488,2868.304 
				3463.145,2952.44 3463.156,2952.434 3559.034,2957.222 			"/>
			<polygon points="4365.042,3162.743 4298.189,3217.477 4298.2,3217.489 4336.171,3305.652 4348.522,3300.319 4314.554,3221.454 
				4380.977,3167.073 4347.65,3077.06 4335.042,3081.727 			"/>
			<polygon points="2890.677,2897.37 2890.683,2897.353 2951.315,2822.925 2940.879,2814.439 2886.641,2881.017 2807.718,2847.249 
				2743.296,2918.408 2753.268,2927.428 2811.244,2863.385 			"/>
			<polygon points="4121.203,4136.393 4114.419,4124.782 4039.831,4168.366 3974.337,4112.009 3974.326,4112.023 3894.078,4164.699 
				3901.469,4175.94 3973.26,4128.818 4038.323,4184.811 			"/>
			<polygon points="4085.617,3816.266 4018.764,3871 4018.776,3871.011 4056.752,3959.175 4069.104,3953.845 4035.135,3874.979 
				4101.552,3820.598 4068.226,3730.583 4055.623,3735.25 			"/>
			<polygon points="4052.532,4462.693 4036.081,4474 4059.832,4474 4060.159,4473.773 			"/>
			<polygon points="3887.313,4474 3913.029,4474 3914.365,4473.18 3915.357,4474 3936.493,4474 3915.524,4456.709 			"/>
			
				<rect x="3338.587" y="2935.725" transform="matrix(0.9488 -0.3159 0.3159 0.9488 -771.1604 1209.3615)" width="13.446" height="95.984"/>
			
				<rect x="3584.326" y="2626.409" transform="matrix(0.0658 -0.9978 0.9978 0.0658 766.0029 6084.4214)" width="95.989" height="13.452"/>
			
				<rect x="3736.391" y="2983.843" transform="matrix(0.7376 -0.6753 0.6753 0.7376 -1065.0118 3323.1396)" width="13.447" height="95.987"/>
			
				<rect x="3265.864" y="4028.756" transform="matrix(0.8739 -0.4861 0.4861 0.8739 -1543.7053 2119.5371)" width="95.984" height="13.448"/>
			
				<rect x="3350.824" y="4268.53" transform="matrix(0.9933 -0.1158 0.1158 0.9933 -477.3779 417.9539)" width="13.451" height="95.987"/>
			
				<rect x="3610.084" y="4309.8" transform="matrix(0.9359 -0.3522 0.3522 0.9359 -1285.8293 1564.8527)" width="95.987" height="13.448"/>
			
				<rect x="3711.187" y="4413.032" transform="matrix(0.4659 -0.8849 0.8849 0.4659 -1902.9182 5687.1533)" width="95.989" height="13.445"/>
			
				<rect x="3230.566" y="3343.384" transform="matrix(0.8739 -0.4861 0.4861 0.8739 -1215.017 2015.9622)" width="95.99" height="13.449"/>
			
				<rect x="3238.228" y="3463.395" transform="matrix(0.9548 -0.2971 0.2971 0.9548 -896.7227 1122.6465)" width="13.451" height="95.986"/>
			
				<rect x="3190.149" y="3624.412" transform="matrix(0.9747 -0.2234 0.2234 0.9747 -729.4236 815.2646)" width="95.99" height="13.448"/>
			
				<rect x="3121.774" y="4332.991" transform="matrix(0.9747 -0.2235 0.2235 0.9747 -889.8464 818.3393)" width="95.988" height="13.448"/>
			
				<rect x="3974.715" y="3065.052" transform="matrix(0.8383 -0.5453 0.5453 0.8383 -1024.3158 2690.2883)" width="95.987" height="13.446"/>
			
				<rect x="3840.824" y="3065.051" transform="matrix(0.2878 -0.9577 0.9577 0.2878 -172.2161 5911.9688)" width="95.992" height="13.448"/>
			
				<rect x="3011.627" y="3863.188" transform="matrix(0.5527 -0.8334 0.8334 0.5527 -1909.4104 4264.6665)" width="13.446" height="95.987"/>
			<polygon points="3644.764,3918.976 3676.066,3842.602 3752.443,3873.901 3757.54,3861.461 3668.72,3825.059 3632.321,3913.879 
							"/>
			<polygon points="2627.504,3296.222 2706.948,3273.828 2703.302,3260.886 2610.915,3286.927 2636.953,3379.314 2649.895,3375.664 
							"/>
			<rect x="3547.555" y="4465.353" width="13.446" height="8.647"/>
			<polygon points="4357.301,2672.109 4278.917,2697.976 4283.131,2710.745 4374.285,2680.67 4344.21,2589.517 4331.44,2593.725 			
				"/>
			<polygon points="4206.41,2889.457 4134.821,2953.397 4198.755,3024.986 4208.784,3016.03 4153.8,2954.469 4215.367,2899.486 			
				"/>
			<polygon points="4396.923,3867.852 4406.952,3858.896 4351.968,3797.335 4413.528,3742.352 4404.572,3732.323 4332.983,3796.263 
							"/>
			<polygon points="3255.43,2679.197 3255.659,2596.656 3338.2,2596.885 3338.235,2583.438 3242.253,2583.169 3241.984,2679.156 			
				"/>
			<polygon points="3743.114,4159.811 3743.062,4146.364 3660.521,4146.697 3660.188,4064.156 3646.742,4064.21 3647.132,4160.195 
							"/>
			<polygon points="3028.696,3705.011 3036.861,3715.694 3113.117,3657.396 3054.82,3581.143 3044.137,3589.308 3094.27,3654.882 
							"/>
			<polygon points="3455.576,3772.294 3378.235,3801.116 3382.926,3813.714 3472.869,3780.199 3439.354,3690.255 3426.757,3694.948 
							"/>
			<polygon points="3835.798,2631.69 3864.984,2554.476 3852.404,2549.728 3818.47,2639.511 3908.253,2673.445 3913.012,2660.871 
							"/>
			<polygon points="3066.402,3303.848 3073.317,3292.314 3002.525,3249.872 3044.969,3179.082 3033.438,3172.167 2984.079,3254.49 
							"/>
			<polygon points="2624.201,2704.363 2675.245,2639.5 2664.683,2631.186 2605.319,2706.616 2680.75,2765.975 2689.064,2755.407 			
				"/>
			<polygon points="3729.713,3201.889 3720.275,3211.468 3779.077,3269.393 3721.152,3328.192 3730.734,3337.631 3798.091,3269.25 
							"/>
			<polygon points="2777.219,4268.232 2772.677,4350.647 2690.262,4346.097 2689.523,4359.526 2785.361,4364.813 2790.648,4268.972 
							"/>
			<polygon points="3107.859,3187.147 3203.25,3197.838 3213.938,3102.45 3200.578,3100.953 3191.381,3182.978 3109.356,3173.784 
							"/>
			<polygon points="3711.146,3490.373 3659.999,3571.595 3741.221,3622.746 3748.389,3611.364 3678.542,3567.384 3722.528,3497.538 
							"/>
			<polygon points="3763.423,2874.199 3763.423,2860.753 3680.888,2860.753 3680.888,2778.211 3667.442,2778.211 3667.442,2874.199 
							"/>
			<polygon points="4116.123,3250.918 4078.25,3234.504 4094.66,3196.646 4082.321,3191.298 4065.91,3229.157 4028.054,3212.749 
				4022.704,3225.086 4060.565,3241.494 4044.149,3279.367 4056.489,3284.714 4072.905,3246.841 4110.778,3263.257 			"/>
			<polygon points="3561.884,3095.581 3586.15,3128.953 3552.767,3153.227 3560.674,3164.105 3594.063,3139.83 3618.335,3173.213 
				3629.213,3165.306 3604.935,3131.923 3638.307,3107.654 3630.4,3096.779 3597.028,3121.045 3572.762,3087.673 			"/>
			<polygon points="4108.857,2578.593 4067.739,2581.977 4068.84,2595.377 4109.958,2591.994 4113.341,2633.135 4126.742,2632.034 
				4123.364,2590.893 4164.5,2587.515 4163.399,2574.109 4122.263,2577.492 4118.88,2536.368 4105.48,2537.469 			"/>
			<polygon points="3554.608,3917.898 3554.608,3904.452 3513.328,3904.452 3513.328,3863.187 3499.882,3863.187 3499.882,3904.452 
				3458.62,3904.452 3458.62,3917.898 3499.882,3917.898 3499.882,3959.175 3513.328,3959.175 3513.328,3917.898 			"/>
			<polygon points="3988.185,4268.528 3988.185,4309.792 3946.923,4309.792 3946.923,4323.239 3988.185,4323.239 3988.185,4364.515 
				4001.631,4364.515 4001.631,4323.239 4042.911,4323.239 4042.911,4309.792 4001.631,4309.792 4001.631,4268.528 			"/>
			<polygon points="4260.39,4081.676 4253.515,4093.23 4288.969,4114.337 4267.856,4149.805 4279.41,4156.683 4300.522,4121.215 
				4335.993,4142.328 4342.868,4130.773 4307.403,4109.661 4328.51,4074.205 4316.957,4067.327 4295.849,4102.783 			"/>
			<polygon points="2467.146,3479.177 2453.499,3492.827 2453.499,3511.844 2476.653,3488.684 			"/>
			<polygon points="2476.665,3547.051 2453.499,3523.88 2453.499,3542.9 2467.158,3556.558 			"/>
			<polygon points="2863.034,4076.808 2846.566,4038.955 2884.422,4022.492 2879.055,4010.162 2841.205,4026.627 2824.748,3988.788 
				2812.414,3994.149 2828.877,4031.988 2791.038,4048.448 2796.399,4060.779 2834.238,4044.319 2850.7,4082.172 			"/>
			<polygon points="2479.234,4451.767 2492.68,4451.767 2492.68,4410.49 2533.959,4410.49 2533.959,4397.044 2492.68,4397.044 
				2492.68,4355.779 2479.234,4355.779 2479.234,4397.044 2453.499,4397.044 2453.499,4410.49 2479.234,4410.49 			"/>
			<polygon points="3149.414,4200.903 3134.62,4162.368 3173.141,4147.58 3168.324,4135.028 3129.803,4149.816 3115.015,4111.295 
				3102.463,4116.111 3117.251,4154.633 3078.713,4169.426 3083.53,4181.979 3122.068,4167.188 3136.862,4205.723 			"/>
			<polygon points="2792.787,2668.72 2799.501,2680.372 2835.253,2659.764 2855.866,2695.527 2867.512,2688.813 2846.898,2653.049 
				2882.662,2632.436 2875.947,2620.784 2840.184,2641.398 2819.576,2605.652 2807.93,2612.367 2828.532,2648.113 			"/>
			<polygon points="3448.563,3576.951 3415.191,3552.659 3439.475,3519.298 3428.603,3511.385 3404.319,3544.746 3370.964,3520.462 
				3363.046,3531.334 3396.406,3555.617 3372.117,3588.99 3382.989,3596.902 3407.278,3563.531 3440.65,3587.823 			"/>
			<polygon points="2941.326,3513.134 2982.588,3512.042 2982.233,3498.601 2940.971,3499.694 2939.875,3458.449 2926.435,3458.805 
				2927.53,3500.052 2886.28,3501.144 2886.635,3514.585 2927.886,3513.493 2928.981,3554.758 2942.421,3554.402 			"/>
			<polygon points="3522.463,2697.752 3520.37,2684.472 3479.595,2690.894 3473.179,2650.131 3459.893,2652.224 3466.31,2692.981 
				3425.552,2699.403 3427.645,2712.683 3468.403,2706.267 3474.825,2747.042 3488.104,2744.948 3481.688,2704.174 			"/>
			<polygon points="3299.255,4444.682 3319.421,4408.684 3307.689,4402.113 3287.523,4438.111 3251.525,4417.944 3244.954,4429.676 
				3280.952,4449.843 3267.419,4474 3282.833,4474 3292.684,4456.414 3324.077,4474 3330.144,4474 3335.27,4464.854 			"/>
			<path d="M3969.567,2873.344l88.923-36.147l-36.142-88.917l-88.923,36.142L3969.567,2873.344z M4040.972,2829.806l-63.997,26.009
				l-26.015-64.009l63.992-26.01L4040.972,2829.806z"/>
			<path d="M3862.645,3483.26l95.936-3.085l-3.085-95.936l-95.936,3.085L3862.645,3483.26z M3944.71,3467.17l-69.043,2.219
				l-2.219-69.06l69.043-2.219L3944.71,3467.17z"/>
			<path d="M3521.161,3476.528l88.923-36.144l-36.142-88.923l-88.929,36.147L3521.161,3476.528z M3592.567,3432.99l-63.998,26.012
				l-26.015-64.009l63.992-26.012L3592.567,3432.99z"/>
			<path d="M3281.342,3873.052v-95.987h-95.987v95.987H3281.342z M3198.818,3859.606v-69.095h69.078v69.095H3198.818z"/>
			<path d="M4176.353,3877.872l18.28,94.23l94.233-18.286l-18.286-94.227L4176.353,3877.872z M4205.286,3956.336l-13.16-67.831
				l67.816-13.156l13.16,67.83L4205.286,3956.336z"/>
			<path d="M3868.568,4083.474v-95.988h-95.987v95.988H3868.568z M3786.044,4070.028v-69.095h69.078v69.095H3786.044z"/>
			<path d="M2821.399,3373.296l73.212-62.074l-62.071-73.215l-73.218,62.073L2821.399,3373.296z M2875.66,3309.66l-52.69,44.674
				l-44.685-52.704l52.696-44.671L2875.66,3309.66z"/>
			<path d="M3026.878,2724.57l89.066-35.792l-35.792-89.061l-89.066,35.792L3026.878,2724.57z M3098.45,2681.318l-64.095,25.757
				l-25.763-64.112l64.095-25.757L3098.45,2681.318z"/>
			<polygon points="4210.733,4368.041 4142.86,4435.915 4180.945,4474 4199.982,4474 4161.886,4435.903 4210.733,4387.055 
				4259.593,4435.912 4221.508,4474 4240.522,4474 4278.607,4435.912 			"/>
			<path d="M4460.915,2937.583l39.112-87.656l-87.65-39.117l-39.117,87.656L4460.915,2937.583z M4419.188,2828.573l63.08,28.154
				l-28.154,63.097l-63.085-28.154L4419.188,2828.573z"/>
			<path d="M2612.521,2999.046l-23.676,93.02l93.017,23.679l23.682-93.023L2612.521,2999.046z M2672.149,3099.396l-66.944-17.042
				l17.047-66.962l66.945,17.042L2672.149,3099.396z"/>
			<path d="M2847.139,4169.942l8.349,95.626l95.62-8.348l-8.349-95.624L2847.139,4169.942z M2936.544,4244.995l-68.82,6.003
				l-6.003-68.831l68.814-6.006L2936.544,4244.995z"/>
			<polygon points="2704.884,4451.767 2704.884,4474 2718.348,4474 2718.348,4465.21 2787.425,4465.21 2787.425,4474 2800.872,4474 
				2800.872,4451.767 			"/>
			<polygon points="4205.022,3444.464 4202.62,3526.953 4298.567,3529.751 4298.957,3516.311 4216.451,3513.908 4218.859,3431.402 
				4122.912,3428.604 4122.516,3442.058 			"/>
			<polygon points="3482.491,3153.399 3472.158,3144.798 3419.348,3208.234 3355.913,3155.424 3294.501,3229.195 3304.846,3237.807 
				3357.65,3174.372 3421.08,3227.171 			"/>
			<polygon points="3923.408,3833.293 3923.282,3819.85 3840.741,3820.644 3839.944,3738.108 3743.962,3739.031 3744.094,3752.492 
				3826.629,3751.698 3827.426,3834.222 			"/>
			<polygon points="3119.889,2941.711 3149.327,2864.6 3059.659,2830.362 3054.854,2842.937 3131.965,2872.381 3102.532,2949.475 
				3192.207,2983.713 3197,2971.15 			"/>
			<polygon points="2725.406,3907.841 2643.926,3894.641 2657.12,3813.167 2562.371,3797.817 2560.221,3811.102 2641.695,3824.302 
				2628.501,3905.765 2723.256,3921.112 			"/>
			<polygon points="2825.046,3757.698 2888.843,3705.327 2827.942,3631.137 2817.535,3639.678 2869.909,3703.475 2806.124,3755.838 
				2867.031,3830.028 2877.421,3821.498 			"/>
			<polygon points="2575.376,4102.826 2564.183,4095.377 2518.448,4164.088 2453.499,4120.862 2453.499,4137.012 2522.193,4182.735 
							"/>
			<polygon points="2497.794,2601.483 2453.499,2562.595 2453.499,2580.485 2488.924,2611.587 			"/>
			<polygon points="2453.499,2452.766 2453.499,2470.673 2471.235,2486.241 2453.499,2506.442 2453.499,2526.827 2490.22,2484.997 
							"/>
			<polygon points="2459.153,2948.477 2541.425,2941.809 2533.667,2846.137 2520.249,2847.22 2526.917,2929.492 2453.499,2935.444 
				2453.499,3031.747 2465.822,3030.749 			"/>
			<polygon points="4508.696,4248.647 4534,4273.955 4534,4254.938 4518.203,4239.141 			"/>
			<polygon points="4502.91,3141.364 4534,3160.329 4534,3144.581 4509.917,3129.887 			"/>
			<polygon points="4496.5,4043.123 4534,4020.296 4534,4004.553 4489.51,4031.638 			"/>
			<rect x="4530.497" y="3378.087" width="3.503" height="13.446"/>
			
				<rect x="4284.557" y="3602.925" transform="matrix(0.8983 -0.4394 0.4394 0.8983 -1145.4684 2271.0437)" width="95.985" height="13.445"/>
			<rect x="4294.875" y="4309.801" width="95.987" height="13.446"/>
			
				<rect x="3974.694" y="3597.371" transform="matrix(0.4646 -0.8855 0.8855 0.4646 -1096.4351 5477.2451)" width="13.446" height="95.988"/>
			<polygon points="4508.243,3671.267 4534,3655.481 4534,3639.713 4501.219,3659.805 			"/>
			<polygon points="4489.298,3479.177 4479.785,3488.684 4508.965,3517.862 4479.773,3547.051 4489.287,3556.558 4518.473,3527.372 
				4534,3542.9 4534,3523.88 4527.979,3517.862 4534,3511.844 4534,3492.827 4518.473,3508.355 			"/>
			<rect x="4518.473" y="4397.044" width="15.528" height="13.446"/>
			<polygon points="4477.056,4198.263 4488.26,4205.723 4533.989,4137.009 4534,4137.015 4534,4120.862 4530.239,4118.359 			"/>
			<polygon points="4489.705,2431.791 4534,2470.673 4534,2452.766 4498.581,2421.676 			"/>
			<polygon points="4534,2580.485 4534,2562.595 4516.265,2547.028 4534,2526.827 4534,2506.442 4497.291,2548.26 			"/>
			<polygon points="4532.922,3031.833 4534,3031.747 4534,2935.444 4525.164,2936.161 			"/>
			<polygon points="4368.792,2450.593 4337.02,2393.499 4321.635,2393.499 4357.043,2457.13 			"/>
			<polygon points="3148.421,2434.423 3091.334,2393.499 3068.254,2393.499 3140.589,2445.352 			"/>
			<polygon points="3981.04,2447.634 4059.832,2393.499 4036.075,2393.499 3981.757,2430.816 3936.499,2393.499 3915.357,2393.499 
				3981.029,2447.646 			"/>
			<polygon points="3840.712,2437.829 3913.029,2393.499 3887.313,2393.499 3833.688,2426.367 			"/>
			<polygon points="3643.537,2480.84 3643.537,2467.394 3561.001,2467.394 3561.001,2393.499 3547.555,2393.499 3547.555,2480.84 
							"/>
			<polygon points="3272.511,2411.923 3282.833,2393.499 3267.419,2393.499 3260.78,2405.351 			"/>
			<polygon points="3330.144,2393.499 3324.077,2393.499 3328.699,2396.085 			"/>
			<polygon points="4240.522,2393.499 4221.508,2393.499 4210.745,2404.256 4199.988,2393.499 4180.945,2393.499 4210.733,2423.288 
							"/>
			<polygon points="2800.872,2467.25 2800.872,2393.499 2787.425,2393.499 2787.425,2453.804 2718.348,2453.804 2718.348,2393.499 
				2704.884,2393.499 2704.884,2467.25 			"/>
		</g>
		<g>
			
				<rect x="1498.849" y="1609.619" transform="matrix(0.7038 -0.7104 0.7104 0.7038 -731.6146 1560.5615)" width="13.448" height="95.986"/>
			<polygon points="425.075,2226.521 373,2174.444 373,2193.458 415.568,2236.027 			"/>
			<polygon points="430.857,1099.38 373,1064.081 373,1079.833 423.855,1110.859 			"/>
			<polygon points="410.5,1901.23 373,1924.057 373,1939.797 417.492,1912.715 			"/>
			<rect x="373" y="1297.587" width="92.485" height="13.446"/>
			<polygon points="2229.867,2373.26 2241.135,2393.499 2256.519,2393.499 2241.622,2366.723 			"/>
			
				<rect x="501.621" y="367.07" transform="matrix(0.6497 -0.7602 0.7602 0.6497 -137.4607 531.8038)" width="13.446" height="95.988"/>
			
				<rect x="698.478" y="1002.966" transform="matrix(0.4021 -0.9156 0.9156 0.4021 -478.1565 1287.1351)" width="95.987" height="13.445"/>
			
				<rect x="819.011" y="1028.524" transform="matrix(0.9146 -0.4044 0.4044 0.9146 -344.608 439.0688)" width="95.988" height="13.448"/>
			
				<rect x="527.761" y="2074.375" transform="matrix(0.6819 -0.7315 0.7315 0.6819 -1336.4266 1089.3671)" width="112.819" height="13.446"/>
			
				<rect x="900.203" y="429.411" transform="matrix(0.9533 -0.302 0.302 0.9533 -87.4344 306.6785)" width="95.988" height="13.449"/>
			
				<rect x="975.356" y="1263.044" transform="matrix(0.3709 -0.9287 0.9287 0.3709 -599.6783 1736.8795)" width="13.443" height="95.986"/>
			
				<rect x="586.8" y="1373.625" transform="matrix(0.3874 -0.9219 0.9219 0.3874 -883.6865 1430.7671)" width="95.987" height="13.446"/>
			<polygon points="982.077,2389.43 987.756,2393.499 1010.833,2393.499 989.909,2378.5 			"/>
			<polygon points="1449.591,2031.415 1388.825,2092.087 1313.772,2050.423 1242.407,2114.61 1251.398,2124.604 1315.624,2066.828 
				1391.164,2108.767 1391.176,2108.755 1459.104,2040.928 			"/>
			<polygon points="487.565,1600.584 487.576,1600.573 566.695,1546.214 559.069,1535.136 488.292,1583.761 422.059,1529.15 
				373,1559.219 373,1574.982 420.9,1545.624 			"/>
			<polygon points="1479.193,863.288 1393.429,859.004 1373.905,775.414 1278.416,765.637 1277.049,779.015 1362.99,787.805 
				1382.644,871.94 1382.655,871.94 1478.534,876.728 			"/>
			<polygon points="2284.541,1082.247 2217.688,1136.978 2217.699,1136.989 2255.67,1225.155 2268.021,1219.823 2234.053,1140.957 
				2300.476,1086.576 2267.149,996.563 2254.541,1001.231 			"/>
			<polygon points="810.18,816.871 810.188,816.854 870.814,742.432 860.378,733.945 806.143,800.517 727.217,766.755 
				662.8,837.909 672.767,846.934 730.744,782.885 			"/>
			<polygon points="2040.702,2055.894 2033.919,2044.288 1959.33,2087.872 1893.837,2031.512 1893.825,2031.524 1813.58,2084.202 
				1820.972,2095.441 1892.759,2048.319 1957.822,2104.312 			"/>
			<polygon points="2005.117,1735.769 1938.264,1790.5 1938.275,1790.517 1976.252,1878.678 1988.603,1873.345 1954.634,1794.48 
				2021.052,1740.098 1987.725,1650.086 1975.122,1654.753 			"/>
			<polygon points="1972.031,2382.193 1955.581,2393.499 1979.331,2393.499 1979.657,2393.276 			"/>
			<polygon points="1806.814,2393.499 1832.531,2393.499 1833.868,2392.679 1834.86,2393.499 1855.995,2393.499 1835.026,2376.213 
							"/>
			
				<rect x="1258.086" y="855.226" transform="matrix(0.9488 -0.3158 0.3158 0.9488 -220.5273 445.7018)" width="13.448" height="95.987"/>
			
				<rect x="1503.828" y="545.915" transform="matrix(0.0658 -0.9978 0.9978 0.0658 898.308 2064.7517)" width="95.986" height="13.45"/>
			
				<rect x="1655.894" y="903.346" transform="matrix(0.7376 -0.6753 0.6753 0.7376 -206.0936 1372.3644)" width="13.445" height="95.987"/>
			
				<rect x="1185.364" y="1948.258" transform="matrix(0.8739 -0.486 0.486 0.8739 -794.7209 845.9166)" width="95.984" height="13.447"/>
			
				<rect x="1270.324" y="2188.032" transform="matrix(0.9933 -0.1158 0.1158 0.9933 -250.4075 162.9743)" width="13.45" height="95.988"/>
			
				<rect x="1529.586" y="2229.301" transform="matrix(0.936 -0.3521 0.3521 0.936 -686.2295 698.5805)" width="95.987" height="13.45"/>
			
				<rect x="1630.688" y="2332.532" transform="matrix(0.4656 -0.885 0.885 0.4656 -1173.1537 2735.6421)" width="95.988" height="13.446"/>
			
				<rect x="1150.067" y="1262.886" transform="matrix(0.8739 -0.4861 0.4861 0.8739 -466.0718 742.4273)" width="95.988" height="13.448"/>
			
				<rect x="1157.729" y="1382.895" transform="matrix(0.9548 -0.2971 0.2971 0.9548 -372.5619 410.6054)" width="13.45" height="95.988"/>
			
				<rect x="1109.65" y="1543.917" transform="matrix(0.9747 -0.2234 0.2234 0.9747 -317.1823 297.8385)" width="95.989" height="13.448"/>
			
				<rect x="1041.276" y="2252.492" transform="matrix(0.9747 -0.2235 0.2235 0.9747 -477.4646 300.6681)" width="95.985" height="13.448"/>
			
				<rect x="1894.215" y="984.556" transform="matrix(0.8383 -0.5452 0.5452 0.8383 -226.3888 1219.3029)" width="95.985" height="13.447"/>
			
				<rect x="1760.325" y="984.554" transform="matrix(0.2878 -0.9577 0.9577 0.2878 338.5977 2437.8496)" width="95.992" height="13.448"/>
			
				<rect x="931.128" y="1782.688" transform="matrix(0.553 -0.8332 0.8332 0.553 -1106.0616 1599.6432)" width="13.448" height="95.987"/>
			<polygon points="1564.266,1838.477 1595.565,1762.106 1671.942,1793.407 1677.039,1780.965 1588.222,1744.565 1551.823,1833.38 
							"/>
			<polygon points="547.004,1215.723 626.449,1193.332 622.801,1180.39 530.414,1206.428 556.454,1298.815 569.397,1295.168 			"/>
			<rect x="1467.054" y="2384.854" width="13.446" height="8.645"/>
			<polygon points="2276.8,591.616 2198.416,617.476 2202.631,630.246 2293.784,600.171 2263.709,509.017 2250.939,513.232 			"/>
			<polygon points="2125.909,808.964 2054.32,872.898 2118.254,944.493 2128.283,935.536 2073.3,873.97 2134.866,818.992 			"/>
			<polygon points="2316.422,1787.352 2326.451,1778.402 2271.467,1716.836 2333.028,1661.852 2324.071,1651.829 2252.482,1715.763 
							"/>
			<polygon points="1174.929,598.697 1175.158,516.156 1257.699,516.386 1257.734,502.939 1161.752,502.675 1161.483,598.663 			"/>
			<polygon points="1662.615,2079.311 1662.564,2065.865 1580.023,2066.198 1579.69,1983.657 1566.244,1983.714 1566.631,2079.695 
							"/>
			<polygon points="948.197,1624.512 956.363,1635.195 1032.616,1576.903 974.322,1500.646 963.639,1508.811 1013.769,1574.385 			
				"/>
			<polygon points="1375.078,1691.795 1297.734,1720.62 1302.428,1733.218 1392.371,1699.703 1358.856,1609.759 1346.255,1614.449 
							"/>
			<polygon points="1755.3,551.191 1784.483,473.982 1771.906,469.229 1737.972,559.012 1827.755,592.952 1832.511,580.377 			"/>
			<polygon points="985.901,1223.349 992.817,1211.818 922.025,1169.375 964.468,1098.583 952.937,1091.668 903.578,1173.991 			"/>
			<polygon points="543.704,623.864 594.748,559.001 584.182,550.686 524.822,626.117 600.252,685.476 608.568,674.908 			"/>
			<polygon points="1649.212,1121.393 1639.777,1130.969 1698.579,1188.894 1640.654,1247.696 1650.233,1257.134 1717.593,1188.75 
							"/>
			<polygon points="696.722,2187.736 692.177,2270.151 609.763,2265.604 609.022,2279.027 704.863,2284.314 710.15,2188.475 			"/>
			<polygon points="1027.358,1106.651 1122.75,1117.339 1133.438,1021.953 1120.077,1020.457 1110.883,1102.482 1028.858,1093.285 
							"/>
			<polygon points="1630.648,1409.877 1579.501,1491.099 1660.723,1542.246 1667.888,1530.87 1598.045,1486.884 1642.027,1417.038 
							"/>
			<polygon points="1682.925,793.699 1682.925,780.253 1600.387,780.253 1600.387,697.712 1586.941,697.712 1586.941,793.699 			"/>
			<polygon points="2035.621,1170.418 1997.749,1154.008 2014.159,1116.146 2001.82,1110.802 1985.409,1148.658 1947.553,1132.253 
				1942.203,1144.587 1980.065,1160.998 1963.648,1198.871 1975.988,1204.215 1992.404,1166.342 2030.277,1182.758 			"/>
			<polygon points="1481.386,1015.084 1505.653,1048.456 1472.269,1072.728 1480.177,1083.606 1513.563,1059.333 1537.838,1092.717 
				1548.712,1084.81 1524.437,1051.426 1557.809,1027.154 1549.902,1016.282 1516.527,1040.549 1492.261,1007.177 			"/>
			<polygon points="2028.356,498.1 1987.238,501.477 1988.339,514.883 2029.457,511.5 2032.841,552.642 2046.241,551.535 
				2042.864,510.399 2084,507.016 2082.899,493.616 2041.763,496.999 2038.38,455.874 2024.979,456.975 			"/>
			<polygon points="1474.107,1837.399 1474.107,1823.953 1432.831,1823.953 1432.831,1782.691 1419.384,1782.691 1419.384,1823.953 
				1378.12,1823.953 1378.12,1837.399 1419.384,1837.399 1419.384,1878.678 1432.831,1878.678 1432.831,1837.399 			"/>
			<polygon points="1907.684,2188.034 1907.684,2229.296 1866.425,2229.296 1866.425,2242.742 1907.684,2242.742 1907.684,2284.021 
				1921.131,2284.021 1921.131,2242.742 1962.41,2242.742 1962.41,2229.296 1921.131,2229.296 1921.131,2188.034 			"/>
			<polygon points="2179.889,2001.18 2173.014,2012.734 2208.468,2033.84 2187.355,2069.305 2198.909,2076.186 2220.022,2040.716 
				2255.492,2061.834 2262.367,2050.28 2226.902,2029.162 2248.01,1993.708 2236.455,1986.827 2215.349,2022.287 			"/>
			<polygon points="386.65,1398.678 373,1412.331 373,1431.345 396.157,1408.191 			"/>
			<polygon points="396.168,1466.552 373,1443.386 373,1462.4 386.66,1476.059 			"/>
			<polygon points="782.533,1996.311 766.071,1958.461 803.921,1941.993 798.557,1929.665 760.704,1946.127 744.247,1908.289 
				731.916,1913.656 748.376,1951.494 710.537,1967.951 715.901,1980.279 753.737,1963.823 770.205,2001.673 			"/>
			<polygon points="398.734,2371.27 412.18,2371.27 412.18,2329.991 453.458,2329.991 453.458,2316.544 412.18,2316.544 
				412.18,2275.282 398.734,2275.282 398.734,2316.544 373,2316.544 373,2329.991 398.734,2329.991 			"/>
			<polygon points="1068.913,2120.407 1054.119,2081.869 1092.646,2067.081 1087.824,2054.529 1049.302,2069.317 1034.515,2030.796 
				1021.963,2035.612 1036.751,2074.133 998.215,2088.927 1003.035,2101.485 1041.567,2086.691 1056.361,2125.224 			"/>
			<polygon points="712.289,588.227 719.003,599.873 754.752,579.27 775.366,615.028 787.017,608.313 766.401,572.55 
				802.161,551.936 795.446,540.291 759.686,560.904 739.081,525.153 727.429,531.873 748.037,567.619 			"/>
			<polygon points="1368.065,1496.454 1334.693,1472.16 1358.977,1438.799 1348.105,1430.886 1323.821,1464.247 1290.464,1439.963 
				1282.548,1450.835 1315.908,1475.118 1291.616,1508.49 1302.488,1516.403 1326.78,1483.031 1360.152,1507.326 			"/>
			<polygon points="860.826,1432.641 902.09,1431.545 901.732,1418.105 860.47,1419.2 859.375,1377.95 845.934,1378.305 
				847.029,1419.556 805.782,1420.645 806.14,1434.091 847.385,1432.996 848.48,1474.258 861.921,1473.902 			"/>
			<polygon points="1441.965,617.258 1439.872,603.972 1399.094,610.394 1392.678,569.632 1379.393,571.724 1385.812,612.487 
				1345.052,618.904 1347.144,632.19 1387.905,625.768 1394.324,666.542 1407.61,664.455 1401.188,623.68 			"/>
			<polygon points="1218.754,2364.183 1238.921,2328.185 1227.189,2321.614 1207.022,2357.612 1171.024,2337.451 1164.453,2349.183 
				1200.451,2369.344 1186.922,2393.499 1202.332,2393.499 1212.183,2375.915 1243.577,2393.499 1249.646,2393.499 
				1254.769,2384.355 			"/>
			<path d="M1889.066,792.845l88.923-36.141l-36.142-88.923l-88.923,36.147L1889.066,792.845z M1960.472,749.307l-63.997,26.015
				l-26.015-64.009l63.992-26.015L1960.472,749.307z"/>
			<path d="M1782.144,1402.761l95.936-3.079l-3.082-95.942l-95.939,3.085L1782.144,1402.761z M1864.212,1386.671l-69.043,2.219
				l-2.222-69.06l69.043-2.219L1864.212,1386.671z"/>
			<path d="M1440.663,1396.029l88.923-36.142l-36.144-88.923l-88.923,36.147L1440.663,1396.029z M1512.066,1352.491l-63.995,26.015
				l-26.018-64.009l63.995-26.015L1512.066,1352.491z"/>
			<path d="M1200.841,1792.559v-95.988h-95.987v95.988H1200.841z M1118.317,1779.113v-69.095h69.078v69.095H1118.317z"/>
			<path d="M2095.852,1797.376l18.28,94.227l94.233-18.28l-18.286-94.233L2095.852,1797.376z M2124.785,1875.84l-13.159-67.828
				l67.816-13.159l13.159,67.828L2124.785,1875.84z"/>
			<path d="M1788.067,2002.974v-95.987h-95.987v95.987H1788.067z M1705.543,1989.528v-69.095h69.078v69.095H1705.543z"/>
			<path d="M740.899,1292.799l73.217-62.076l-62.076-73.212l-73.213,62.071L740.899,1292.799z M795.162,1229.164l-52.693,44.674
				l-44.681-52.707l52.691-44.668L795.162,1229.164z"/>
			<path d="M946.377,644.076l89.066-35.792l-35.792-89.066l-89.066,35.792L946.377,644.076z M1017.955,600.819l-64.101,25.763
				l-25.763-64.118l64.098-25.757L1017.955,600.819z"/>
			<polygon points="2130.233,2287.542 2062.359,2355.416 2100.445,2393.499 2119.482,2393.499 2081.385,2355.404 2130.233,2306.556 
				2179.092,2355.416 2141.007,2393.499 2160.021,2393.499 2198.106,2355.416 			"/>
			<path d="M2380.414,857.083l39.112-87.656l-87.65-39.112l-39.117,87.656L2380.414,857.083z M2338.687,748.08l63.08,28.148
				l-28.154,63.097l-63.086-28.148L2338.687,748.08z"/>
			<path d="M532.024,918.546l-23.68,93.023l93.021,23.676l23.679-93.017L532.024,918.546z M591.652,1018.897l-66.945-17.042
				l17.046-66.956l66.943,17.042L591.652,1018.897z"/>
			<path d="M766.639,2089.449l8.349,95.62l95.623-8.349l-8.346-95.62L766.639,2089.449z M856.046,2164.496l-68.817,6.009
				l-6.009-68.837l68.82-6.004L856.046,2164.496z"/>
			<polygon points="624.385,2371.27 624.385,2393.499 637.847,2393.499 637.847,2384.716 706.924,2384.716 706.924,2393.499 
				720.371,2393.499 720.371,2371.27 			"/>
			<polygon points="2124.522,1363.964 2122.119,1446.46 2218.066,1449.252 2218.456,1435.812 2135.95,1433.409 2138.358,1350.902 
				2042.411,1348.104 2042.015,1361.562 			"/>
			<polygon points="1401.99,1072.9 1391.657,1064.299 1338.847,1127.734 1275.412,1074.924 1214,1148.698 1224.345,1157.311 
				1277.152,1093.875 1340.579,1146.674 			"/>
			<polygon points="1842.907,1752.799 1842.781,1739.353 1760.243,1740.15 1759.446,1657.615 1663.464,1658.538 1663.593,1671.996 
				1746.131,1671.199 1746.926,1753.722 			"/>
			<polygon points="1039.389,861.218 1068.827,784.107 979.158,749.869 974.356,762.444 1051.464,791.882 1022.031,868.981 
				1111.706,903.219 1116.502,890.656 			"/>
			<polygon points="644.905,1827.341 563.427,1814.148 576.622,1732.667 481.872,1717.317 479.72,1730.603 561.197,1743.802 
				548.002,1825.266 642.754,1840.616 			"/>
			<polygon points="744.551,1677.202 808.348,1624.828 747.441,1550.641 737.039,1559.179 789.411,1622.975 725.626,1675.338 
				786.53,1749.531 796.923,1740.999 			"/>
			<polygon points="494.875,2022.332 483.682,2014.878 437.949,2083.594 373,2040.366 373,2056.519 441.692,2102.236 			"/>
			<polygon points="417.295,520.984 373,482.102 373,499.992 408.426,531.088 			"/>
			<polygon points="373,372.267 373,390.18 390.734,405.748 373,425.949 373,446.333 409.719,404.503 			"/>
			<polygon points="378.654,867.984 460.924,861.309 453.166,765.637 439.749,766.727 446.421,848.998 373,854.95 373,951.253 
				385.324,950.25 			"/>
			<polygon points="2428.195,2168.154 2453.499,2193.458 2453.499,2174.444 2437.702,2158.647 			"/>
			<polygon points="2422.409,1060.865 2453.499,1079.833 2453.499,1064.081 2429.417,1049.391 			"/>
			<polygon points="2415.999,1962.624 2453.499,1939.797 2453.499,1924.057 2409.009,1951.139 			"/>
			<rect x="2449.996" y="1297.587" width="3.503" height="13.446"/>
			
				<rect x="2204.056" y="1522.429" transform="matrix(0.8983 -0.4394 0.4394 0.8983 -442.849 1145.0249)" width="95.985" height="13.445"/>
			<rect x="2214.374" y="2229.302" width="95.987" height="13.446"/>
			
				<rect x="1894.196" y="1516.874" transform="matrix(0.4646 -0.8855 0.8855 0.4646 -368.0044 2521.0522)" width="13.443" height="95.987"/>
			<polygon points="2427.742,1590.768 2453.499,1574.982 2453.499,1559.219 2420.718,1579.305 			"/>
			<polygon points="2408.797,1398.678 2399.284,1408.191 2428.465,1437.365 2399.273,1466.552 2408.786,1476.059 2437.972,1446.873 
				2453.499,1462.4 2453.499,1443.386 2447.479,1437.365 2453.499,1431.345 2453.499,1412.331 2437.972,1427.859 			"/>
			<polygon points="2396.555,2117.769 2407.759,2125.224 2453.488,2056.513 2453.499,2056.519 2453.499,2040.366 2449.738,2037.86 
							"/>
			<polygon points="2409.204,351.292 2453.499,390.18 2453.499,372.267 2418.08,341.177 			"/>
			<polygon points="2453.499,499.992 2453.499,482.102 2435.764,466.534 2453.499,446.327 2453.499,425.949 2416.79,467.767 			"/>
			<polygon points="2452.421,951.339 2453.499,951.253 2453.499,854.95 2444.663,855.667 			"/>
			<polygon points="2288.291,370.099 2256.519,313 2241.135,313 2276.542,376.636 			"/>
			<polygon points="1067.921,353.929 1010.836,313 987.759,313 1060.088,364.858 			"/>
			<polygon points="1900.54,367.135 1979.331,313 1955.575,313 1901.257,350.317 1855.998,313 1834.86,313 1900.528,367.146 			"/>
			<polygon points="1760.211,357.33 1832.531,313 1806.811,313 1753.187,345.867 			"/>
			<polygon points="1563.039,400.341 1563.039,386.894 1480.5,386.894 1480.5,313 1467.054,313 1467.054,400.341 			"/>
			<polygon points="1192.011,331.429 1202.332,313 1186.919,313 1180.279,324.858 			"/>
			<polygon points="1249.643,313 1243.579,313 1248.198,315.586 			"/>
			<polygon points="2160.021,313 2141.007,313 2130.244,323.763 2119.487,313 2100.445,313 2130.233,342.788 			"/>
			<polygon points="720.371,386.757 720.371,313 706.924,313 706.924,373.31 637.847,373.31 637.847,313 624.385,313 
				624.385,386.757 			"/>
		</g>
		<g>
			
				<rect x="3579.345" y="1609.618" transform="matrix(0.7037 -0.7105 0.7105 0.7037 -115.1684 3039.0637)" width="13.447" height="95.987"/>
			<polygon points="2505.576,2226.521 2453.497,2174.444 2453.497,2193.458 2496.069,2236.027 			"/>
			<polygon points="2511.356,1099.38 2453.497,1064.081 2453.497,1079.833 2504.354,1110.859 			"/>
			<polygon points="2491,1901.23 2453.497,1924.057 2453.497,1939.797 2497.99,1912.715 			"/>
			<rect x="2453.497" y="1297.587" width="92.487" height="13.446"/>
			<polygon points="4310.368,2373.26 4321.629,2393.499 4337.02,2393.499 4322.117,2366.723 			"/>
			
				<rect x="2582.118" y="367.071" transform="matrix(0.6498 -0.7601 0.7601 0.6498 591.2311 2113.2783)" width="13.447" height="95.987"/>
			
				<rect x="2778.974" y="1002.965" transform="matrix(0.4021 -0.9156 0.9156 0.4021 765.7895 3192.0632)" width="95.987" height="13.446"/>
			
				<rect x="2899.508" y="1028.524" transform="matrix(0.9146 -0.4044 0.4044 0.9146 -166.8802 1280.4617)" width="95.988" height="13.447"/>
			
				<rect x="2608.26" y="2074.375" transform="matrix(0.6819 -0.7315 0.7315 0.6819 -674.5552 2611.2004)" width="112.819" height="13.445"/>
			<rect x="2980.698" y="429.411" transform="matrix(0.9533 -0.302 0.302 0.9533 9.6829 934.9067)" width="95.99" height="13.449"/>
			
				<rect x="3055.851" y="1263.044" transform="matrix(0.3709 -0.9287 0.9287 0.3709 709.2557 3669.0159)" width="13.443" height="95.986"/>
			
				<rect x="2667.298" y="1373.624" transform="matrix(0.3875 -0.9219 0.9219 0.3875 390.6918 3348.6987)" width="95.988" height="13.447"/>
			<polygon points="3062.572,2389.43 3068.254,2393.499 3091.328,2393.499 3070.405,2378.5 			"/>
			<polygon points="3530.089,2031.415 3469.32,2092.087 3394.267,2050.423 3322.902,2114.61 3331.893,2124.604 3396.119,2066.828 
				3471.665,2108.767 3471.671,2108.755 3539.602,2040.928 			"/>
			<polygon points="2568.065,1600.584 2568.076,1600.573 2647.194,1546.214 2639.568,1535.136 2568.793,1583.761 2502.56,1529.15 
				2453.497,1559.219 2453.497,1574.982 2501.401,1545.624 			"/>
			<polygon points="3559.688,863.288 3473.925,859.004 3454.4,775.414 3358.912,765.637 3357.547,779.015 3443.488,787.805 
				3463.139,871.94 3463.156,871.94 3559.029,876.728 			"/>
			<polygon points="4365.036,1082.247 4298.183,1136.978 4298.194,1136.989 4336.171,1225.155 4348.522,1219.823 4314.554,1140.957 
				4380.971,1086.576 4347.645,996.563 4335.042,1001.231 			"/>
			<polygon points="2890.677,816.871 2890.683,816.854 2951.309,742.432 2940.873,733.945 2886.641,800.517 2807.712,766.755 
				2743.296,837.909 2753.268,846.934 2811.239,782.885 			"/>
			<polygon points="4121.203,2055.894 4114.419,2044.288 4039.826,2087.872 3974.337,2031.512 3974.326,2031.524 3894.078,2084.202 
				3901.469,2095.441 3973.254,2048.319 4038.323,2104.312 			"/>
			<polygon points="4085.617,1735.769 4018.764,1790.5 4018.776,1790.517 4056.747,1878.678 4069.098,1873.345 4035.13,1794.48 
				4101.552,1740.098 4068.226,1650.086 4055.617,1654.753 			"/>
			<polygon points="4052.532,2382.193 4036.075,2393.499 4059.832,2393.499 4060.159,2393.276 			"/>
			<polygon points="3887.313,2393.499 3913.029,2393.499 3914.365,2392.679 3915.357,2393.499 3936.493,2393.499 3915.524,2376.213 
							"/>
			
				<rect x="3338.584" y="855.225" transform="matrix(0.9488 -0.3159 0.3159 0.9488 -114.0249 1102.9849)" width="13.447" height="95.988"/>
			
				<rect x="3584.325" y="545.917" transform="matrix(0.0658 -0.9978 0.9978 0.0658 2841.9766 4140.7466)" width="95.986" height="13.447"/>
			
				<rect x="3736.39" y="903.345" transform="matrix(0.7376 -0.6753 0.6753 0.7376 339.8814 2777.2512)" width="13.446" height="95.988"/>
			
				<rect x="3265.859" y="1948.258" transform="matrix(0.8739 -0.486 0.486 0.8739 -532.4412 1857.0189)" width="95.989" height="13.448"/>
			
				<rect x="3350.824" y="2188.032" transform="matrix(0.9933 -0.1158 0.1158 0.9933 -236.4033 403.9628)" width="13.445" height="95.988"/>
			
				<rect x="3610.082" y="2229.302" transform="matrix(0.936 -0.352 0.352 0.936 -553.0013 1430.9419)" width="95.989" height="13.449"/>
			<polygon points="3787.495,2299.922 3775.591,2293.66 3730.865,2378.586 3742.763,2384.854 			"/>
			
				<rect x="3230.566" y="1262.886" transform="matrix(0.8739 -0.4861 0.4861 0.8739 -203.7478 1753.7567)" width="95.985" height="13.448"/>
			
				<rect x="3238.228" y="1382.895" transform="matrix(0.9548 -0.2972 0.2972 0.9548 -278.655 1029.2041)" width="13.446" height="95.988"/>
			
				<rect x="3190.146" y="1543.917" transform="matrix(0.9747 -0.2234 0.2234 0.9747 -264.6147 762.7657)" width="95.988" height="13.448"/>
			
				<rect x="3121.771" y="2252.492" transform="matrix(0.9747 -0.2235 0.2235 0.9747 -424.7957 765.697)" width="95.991" height="13.448"/>
			
				<rect x="3974.71" y="984.555" transform="matrix(0.8383 -0.5452 0.5452 0.8383 110.0383 2353.5676)" width="95.987" height="13.449"/>
			
				<rect x="3840.821" y="984.553" transform="matrix(0.2877 -0.9577 0.9577 0.2877 1820.608 4430.4692)" width="95.991" height="13.45"/>
			
				<rect x="3011.625" y="1782.687" transform="matrix(0.553 -0.8332 0.8332 0.553 -176.1316 3333.053)" width="13.448" height="95.989"/>
			<polygon points="3644.764,1838.477 3676.06,1762.106 3752.437,1793.407 3757.534,1780.965 3668.72,1744.565 3632.321,1833.38 			
				"/>
			<polygon points="2627.504,1215.723 2706.948,1193.332 2703.302,1180.39 2610.915,1206.428 2636.953,1298.815 2649.895,1295.168 
							"/>
			<rect x="3547.549" y="2384.854" width="13.446" height="8.645"/>
			<polygon points="4357.301,591.616 4278.917,617.476 4283.125,630.246 4374.279,600.171 4344.204,509.017 4331.44,513.232 			"/>
			<polygon points="4206.404,808.964 4134.815,872.898 4198.755,944.493 4208.784,935.536 4153.8,873.97 4215.361,818.992 			"/>
			<polygon points="4396.917,1787.352 4406.946,1778.402 4351.968,1716.836 4413.528,1661.852 4404.572,1651.829 4332.983,1715.763 
							"/>
			<polygon points="3255.43,598.697 3255.659,516.156 3338.194,516.386 3338.235,502.939 3242.247,502.675 3241.984,598.663 			"/>
			<polygon points="3743.114,2079.311 3743.062,2065.865 3660.521,2066.198 3660.188,1983.657 3646.742,1983.714 3647.126,2079.695 
							"/>
			<polygon points="3028.696,1624.512 3036.861,1635.195 3113.112,1576.903 3054.82,1500.646 3044.137,1508.811 3094.264,1574.385 
							"/>
			<polygon points="3455.576,1691.795 3378.229,1720.62 3382.926,1733.218 3472.869,1699.703 3439.354,1609.759 3426.751,1614.449 
							"/>
			<polygon points="3835.798,551.191 3864.978,473.982 3852.404,469.229 3818.47,559.012 3908.253,592.952 3913.007,580.377 			"/>
			<polygon points="3066.396,1223.349 3073.312,1211.818 3002.52,1169.375 3044.963,1098.583 3033.431,1091.668 2984.073,1173.991 
							"/>
			<polygon points="2624.201,623.864 2675.245,559.001 2664.683,550.686 2605.319,626.117 2680.75,685.476 2689.064,674.908 			"/>
			<polygon points="3729.708,1121.393 3720.275,1130.969 3779.077,1188.894 3721.152,1247.696 3730.728,1257.134 3798.091,1188.75 
							"/>
			<polygon points="2777.219,2187.736 2772.677,2270.151 2690.262,2265.604 2689.523,2279.027 2785.361,2284.314 2790.648,2188.475 
							"/>
			<polygon points="3107.854,1106.651 3203.244,1117.339 3213.938,1021.953 3200.573,1020.457 3191.381,1102.482 3109.356,1093.285 
							"/>
			<polygon points="3711.146,1409.877 3659.999,1491.099 3741.221,1542.246 3748.383,1530.87 3678.542,1486.884 3722.523,1417.038 
							"/>
			<polygon points="3763.423,793.699 3763.423,780.253 3680.882,780.253 3680.882,697.712 3667.436,697.712 3667.436,793.699 			"/>
			<polygon points="4116.123,1170.418 4078.25,1154.008 4094.654,1116.146 4082.321,1110.802 4065.91,1148.658 4028.048,1132.253 
				4022.704,1144.587 4060.56,1160.998 4044.149,1198.871 4056.483,1204.215 4072.899,1166.342 4110.772,1182.758 			"/>
			<polygon points="3561.884,1015.084 3586.15,1048.456 3552.767,1072.728 3560.674,1083.606 3594.058,1059.333 3618.335,1092.717 
				3629.207,1084.81 3604.935,1051.426 3638.307,1027.154 3630.4,1016.282 3597.022,1040.549 3572.756,1007.177 			"/>
			<polygon points="4108.857,498.1 4067.733,501.477 4068.834,514.883 4109.958,511.5 4113.341,552.642 4126.742,551.535 
				4123.359,510.399 4164.5,507.016 4163.394,493.616 4122.258,496.999 4118.88,455.874 4105.475,456.975 			"/>
			<polygon points="3554.602,1837.399 3554.602,1823.953 3513.328,1823.953 3513.328,1782.691 3499.882,1782.691 3499.882,1823.953 
				3458.615,1823.953 3458.615,1837.399 3499.882,1837.399 3499.882,1878.678 3513.328,1878.678 3513.328,1837.399 			"/>
			<polygon points="3988.185,2188.034 3988.185,2229.296 3946.923,2229.296 3946.923,2242.742 3988.185,2242.742 3988.185,2284.021 
				4001.631,2284.021 4001.631,2242.742 4042.905,2242.742 4042.905,2229.296 4001.631,2229.296 4001.631,2188.034 			"/>
			<polygon points="4260.39,2001.18 4253.509,2012.734 4288.969,2033.84 4267.85,2069.305 4279.404,2076.186 4300.522,2040.716 
				4335.987,2061.834 4342.868,2050.28 4307.397,2029.162 4328.504,1993.708 4316.951,1986.827 4295.843,2022.287 			"/>
			<polygon points="2467.146,1398.678 2453.497,1412.331 2453.497,1431.345 2476.653,1408.191 			"/>
			<polygon points="2476.665,1466.552 2453.497,1443.386 2453.497,1462.4 2467.158,1476.059 			"/>
			<polygon points="2863.028,1996.311 2846.566,1958.461 2884.416,1941.993 2879.055,1929.665 2841.199,1946.127 2824.742,1908.289 
				2812.414,1913.656 2828.871,1951.494 2791.038,1967.951 2796.399,1980.279 2834.232,1963.823 2850.7,2001.673 			"/>
			<polygon points="3149.414,2120.407 3134.62,2081.869 3173.141,2067.081 3168.319,2054.529 3129.798,2069.317 3115.01,2030.796 
				3102.458,2035.612 3117.246,2074.133 3078.713,2088.927 3083.53,2101.485 3122.068,2086.691 3136.856,2125.224 			"/>
			<polygon points="2792.787,588.227 2799.501,599.873 2835.247,579.27 2855.861,615.028 2867.512,608.313 2846.898,572.55 
				2882.656,551.936 2875.941,540.291 2840.184,560.904 2819.576,525.153 2807.924,531.873 2828.532,567.619 			"/>
			<polygon points="3448.563,1496.454 3415.191,1472.16 3439.475,1438.799 3428.603,1430.886 3404.319,1464.247 3370.959,1439.963 
				3363.046,1450.835 3396.406,1475.118 3372.111,1508.49 3382.983,1516.403 3407.278,1483.031 3440.65,1507.326 			"/>
			<polygon points="2941.32,1432.641 2982.588,1431.545 2982.227,1418.105 2940.965,1419.2 2939.87,1377.95 2926.429,1378.305 
				2927.524,1419.556 2886.28,1420.645 2886.635,1434.091 2927.88,1432.996 2928.975,1474.258 2942.416,1473.902 			"/>
			<polygon points="3522.463,617.258 3520.37,603.972 3479.59,610.394 3473.173,569.632 3459.893,571.724 3466.31,612.487 
				3425.552,618.904 3427.639,632.19 3468.403,625.768 3474.819,666.542 3488.104,664.455 3481.682,623.68 			"/>
			<polygon points="3299.249,2364.183 3319.416,2328.185 3307.684,2321.614 3287.523,2357.612 3251.519,2337.451 3244.948,2349.183 
				3280.952,2369.344 3267.419,2393.499 3282.833,2393.499 3292.678,2375.915 3324.072,2393.499 3330.144,2393.499 
				3335.264,2384.355 			"/>
			<path d="M3969.567,792.845l88.923-36.141l-36.147-88.923l-88.923,36.147L3969.567,792.845z M4040.967,749.307l-63.991,26.015
				l-26.021-64.009l63.997-26.015L4040.967,749.307z"/>
			<path d="M3862.639,1402.761l95.941-3.079l-3.085-95.942l-95.941,3.085L3862.639,1402.761z M3944.71,1386.671l-69.043,2.219
				l-2.225-69.06l69.043-2.219L3944.71,1386.671z"/>
			<path d="M3521.161,1396.029l88.923-36.142l-36.147-88.923l-88.923,36.147L3521.161,1396.029z M3592.561,1352.491l-63.992,26.015
				l-26.021-64.009l63.997-26.015L3592.561,1352.491z"/>
			<path d="M3281.342,1792.559v-95.988h-95.987v95.988H3281.342z M3198.812,1779.113v-69.095h69.083v69.095H3198.812z"/>
			<path d="M4176.347,1797.376l18.286,94.227l94.227-18.28l-18.28-94.233L4176.347,1797.376z M4205.286,1875.84l-13.16-67.828
				l67.811-13.159l13.159,67.828L4205.286,1875.84z"/>
			<path d="M3868.562,2002.974v-95.987h-95.987v95.987H3868.562z M3786.038,1989.528v-69.095h69.078v69.095H3786.038z"/>
			<path d="M2821.394,1292.799l73.218-62.076l-62.076-73.212l-73.212,62.071L2821.394,1292.799z M2875.66,1229.164l-52.696,44.674
				l-44.679-52.707l52.69-44.668L2875.66,1229.164z"/>
			<path d="M3026.872,644.076l89.066-35.792l-35.792-89.066l-89.066,35.792L3026.872,644.076z M3098.45,600.819l-64.101,25.763
				l-25.763-64.118l64.1-25.757L3098.45,600.819z"/>
			<polygon points="4210.733,2287.542 4142.86,2355.416 4180.945,2393.499 4199.982,2393.499 4161.886,2355.404 4210.733,2306.556 
				4259.587,2355.416 4221.502,2393.499 4240.522,2393.499 4278.607,2355.416 			"/>
			<path d="M4460.909,857.083l39.118-87.656l-87.656-39.112l-39.118,87.656L4460.909,857.083z M4419.182,748.08l63.085,28.148
				l-28.159,63.097l-63.08-28.148L4419.182,748.08z"/>
			<path d="M2612.521,918.546l-23.676,93.023l93.017,23.676l23.682-93.017L2612.521,918.546z M2672.149,1018.897l-66.944-17.042
				l17.047-66.956l66.945,17.042L2672.149,1018.897z"/>
			<path d="M2847.134,2089.449l8.349,95.62l95.626-8.349l-8.349-95.62L2847.134,2089.449z M2936.544,2164.496l-68.82,6.009
				l-6.01-68.837l68.82-6.004L2936.544,2164.496z"/>
			<polygon points="2704.884,2371.27 2704.884,2393.499 2718.348,2393.499 2718.348,2384.716 2787.425,2384.716 2787.425,2393.499 
				2800.866,2393.499 2800.866,2371.27 			"/>
			<polygon points="4205.022,1363.964 4202.614,1446.46 4298.562,1449.252 4298.957,1435.812 4216.451,1433.409 4218.853,1350.902 
				4122.906,1348.104 4122.516,1361.562 			"/>
			<polygon points="3482.485,1072.9 3472.152,1064.299 3419.348,1127.734 3355.907,1074.924 3294.496,1148.698 3304.84,1157.311 
				3357.65,1093.875 3421.074,1146.674 			"/>
			<polygon points="3923.402,1752.799 3923.276,1739.353 3840.741,1740.15 3839.944,1657.615 3743.962,1658.538 3744.088,1671.996 
				3826.629,1671.199 3827.421,1753.722 			"/>
			<polygon points="3119.883,861.218 3149.322,784.107 3059.653,749.869 3054.854,762.444 3131.965,791.882 3102.527,868.981 
				3192.201,903.219 3197,890.656 			"/>
			<polygon points="2725.406,1827.341 2643.926,1814.148 2657.12,1732.667 2562.371,1717.317 2560.221,1730.603 2641.695,1743.802 
				2628.501,1825.266 2723.25,1840.616 			"/>
			<polygon points="2825.046,1677.202 2888.843,1624.828 2827.936,1550.641 2817.535,1559.179 2869.909,1622.975 2806.124,1675.338 
				2867.025,1749.531 2877.421,1740.999 			"/>
			<polygon points="2575.376,2022.332 2564.183,2014.878 2518.448,2083.594 2453.497,2040.366 2453.497,2056.519 2522.193,2102.236 
							"/>
			<polygon points="2497.794,520.984 2453.497,482.102 2453.497,499.992 2488.924,531.088 			"/>
			<polygon points="2453.497,372.267 2453.497,390.18 2471.235,405.748 2453.497,425.949 2453.497,446.333 2490.22,404.503 			"/>
			<polygon points="2459.153,867.984 2541.425,861.309 2533.667,765.637 2520.249,766.727 2526.917,848.998 2453.497,854.95 
				2453.497,951.253 2465.822,950.25 			"/>
			<polygon points="4508.69,2168.154 4533.995,2193.458 4533.995,2174.444 4518.197,2158.647 			"/>
			<polygon points="4502.91,1060.865 4533.995,1079.833 4533.995,1064.081 4509.912,1049.391 			"/>
			<polygon points="4496.494,1962.624 4533.995,1939.797 4533.995,1924.057 4489.504,1951.139 			"/>
			<rect x="4530.497" y="1297.587" width="3.498" height="13.446"/>
			<polygon points="4292.386,1556.277 4378.614,1514.104 4372.702,1502.022 4286.48,1544.202 			"/>
			<rect x="4294.875" y="2229.302" width="95.987" height="13.446"/>
			
				<rect x="3974.693" y="1516.873" transform="matrix(0.4646 -0.8855 0.8855 0.4646 745.7929 4363.2993)" width="13.444" height="95.988"/>
			<polygon points="4508.243,1590.768 4533.995,1574.982 4533.995,1559.219 4501.219,1579.305 			"/>
			<polygon points="4489.292,1398.678 4479.785,1408.191 4508.959,1437.365 4479.773,1466.552 4489.28,1476.059 4518.467,1446.873 
				4533.995,1462.4 4533.995,1443.386 4527.979,1437.365 4533.995,1431.345 4533.995,1412.331 4518.467,1427.859 			"/>
			<rect x="4518.467" y="2316.544" width="15.528" height="13.446"/>
			<polygon points="4477.05,2117.769 4488.254,2125.224 4533.989,2056.513 4533.995,2056.519 4533.995,2040.366 4530.233,2037.86 
							"/>
			<polygon points="4489.699,351.292 4533.995,390.18 4533.995,372.267 4498.581,341.177 			"/>
			<polygon points="4533.995,499.992 4533.995,482.102 4516.265,466.534 4533.995,446.327 4533.995,425.949 4497.285,467.767 			"/>
			<polygon points="4532.922,951.339 4533.995,951.253 4533.995,854.95 4525.164,855.667 			"/>
			<polygon points="4368.786,370.099 4337.02,313 4321.629,313 4357.037,376.636 			"/>
			<polygon points="3148.416,353.929 3091.334,313 3068.254,313 3140.583,364.858 			"/>
			<polygon points="3981.04,367.135 4059.832,313 4036.075,313 3981.757,350.317 3936.493,313 3915.357,313 3981.029,367.146 			"/>
			<polygon points="3840.706,357.33 3913.029,313 3887.307,313 3833.682,345.867 			"/>
			<polygon points="3643.537,400.341 3643.537,386.894 3560.996,386.894 3560.996,313 3547.549,313 3547.549,400.341 			"/>
			<polygon points="3272.506,331.429 3282.827,313 3267.419,313 3260.78,324.858 			"/>
			<polygon points="3330.144,313 3324.077,313 3328.693,315.586 			"/>
			<polygon points="4240.516,313 4221.502,313 4210.745,323.763 4199.982,313 4180.945,313 4210.733,342.788 			"/>
			<polygon points="2800.866,386.757 2800.866,313 2787.425,313 2787.425,373.31 2718.348,373.31 2718.348,313 2704.884,313 
				2704.884,386.757 			"/>
		</g>
	</g>
</g>
</svg>
