<?xml version="1.0" encoding="utf-8"?>
<!-- Generator: Adobe Illustrator 27.5.0, SVG Export Plug-In . SVG Version: 6.00 Build 0)  -->
<svg version="1.1" xmlns="http://www.w3.org/2000/svg" xmlns:xlink="http://www.w3.org/1999/xlink" x="0px" y="0px"
	 viewBox="0 0 366.449 500" style="enable-background:new 0 0 366.449 500;" xml:space="preserve">
<g id="_x34_6">
	<g>
		<g>
			<rect x="0.001" y="0.002" style="fill:#E6F5FF;" width="366.446" height="499.996"/>
			<g>
				<rect x="283.379" y="416.939" style="fill:#4F81A9;" width="66.771" height="66.771"/>
				<path style="fill:#003170;" d="M350.149,483.709h-66.77c0-18.436,14.948-33.383,33.388-33.383
					C335.202,450.326,350.149,465.273,350.149,483.709z"/>
			</g>
			<g>
				<rect x="216.609" y="416.939" style="fill:#E6F5FF;" width="66.77" height="66.771"/>
				<path style="fill:#1AC0BA;" d="M216.609,483.709v-66.771c18.438,0,33.385,14.947,33.385,33.386
					C249.994,468.762,235.047,483.709,216.609,483.709z"/>
			</g>
			<g>
				<rect x="149.839" y="416.939" style="fill:#E6F5FF;" width="66.77" height="66.771"/>
				<path style="fill:#4F81A9;" d="M216.609,416.939v66.771c-18.438,0-33.385-14.947-33.385-33.383
					C183.224,431.886,198.172,416.939,216.609,416.939z"/>
			</g>
			<g>
				<rect x="83.069" y="416.939" style="fill:#E6F5FF;" width="66.77" height="66.771"/>
				<path style="fill:#003170;" d="M149.839,483.709h-66.77c0-18.438,14.947-33.385,33.385-33.385
					C134.892,450.324,149.839,465.272,149.839,483.709z"/>
			</g>
			<g>
				<rect x="16.299" y="416.939" style="fill:#003170;" width="66.77" height="66.771"/>
				<path style="fill:#E6F5FF;" d="M16.299,416.939h66.77c0,18.438-14.948,33.386-33.385,33.386S16.299,435.376,16.299,416.939z"/>
			</g>
			<g>
				<rect x="283.384" y="350.166" style="fill:#1AC0BA;" width="66.771" height="66.771"/>
				<path style="fill:#4F81A9;" d="M283.384,350.166h66.771c0,18.439-14.948,33.386-33.383,33.386
					C298.331,383.552,283.384,368.604,283.384,350.166z"/>
			</g>
			<g>
				<rect x="216.611" y="350.166" style="fill:#1AC0BA;" width="66.772" height="66.772"/>
				<path style="fill:#E6F5FF;" d="M283.384,416.939h-66.772c0-18.44,14.947-33.387,33.385-33.387
					C268.436,383.552,283.384,398.499,283.384,416.939z"/>
			</g>
			<g>
				<rect x="149.839" y="350.166" style="fill:#E6F5FF;" width="66.772" height="66.771"/>
				<path style="fill:#1AC0BA;" d="M149.839,350.166h66.772c0,18.439-14.947,33.386-33.385,33.386
					C164.787,383.552,149.839,368.604,149.839,350.166z"/>
			</g>
			<g>
				<rect x="83.069" y="350.166" style="fill:#E6F5FF;" width="66.77" height="66.771"/>
				<path style="fill:#003170;" d="M83.069,416.936v-66.771c18.438,0,33.385,14.948,33.385,33.386S101.507,416.936,83.069,416.936z"
					/>
			</g>
			<g>
				<rect x="16.299" y="350.166" style="fill:#1AC0BA;" width="66.77" height="66.771"/>
				<path style="fill:#4F81A9;" d="M83.069,350.166v66.771c-18.438,0-33.385-14.947-33.385-33.385S64.632,350.166,83.069,350.166z"
					/>
			</g>
			<g>
				<rect x="283.384" y="283.395" style="fill:#003170;" width="66.771" height="66.77"/>
				<path style="fill:#1AC0BA;" d="M283.384,283.395h66.771c0,18.438-14.948,33.385-33.386,33.385S283.384,301.832,283.384,283.395z
					"/>
			</g>
			<g>
				<rect x="216.614" y="283.395" style="fill:#1AC0BA;" width="66.77" height="66.77"/>
				<path style="fill:#E6F5FF;" d="M283.384,350.164h-66.77c0-18.436,14.947-33.383,33.382-33.383
					C268.436,316.781,283.384,331.728,283.384,350.164z"/>
			</g>
			<g>
				<rect x="149.841" y="283.395" style="fill:#4F81A9;" width="66.773" height="66.77"/>
				<path style="fill:#E6F5FF;" d="M149.841,283.395h66.773c0,18.438-14.948,33.385-33.388,33.385
					C164.789,316.779,149.841,301.832,149.841,283.395z"/>
			</g>
			<g>
				<rect x="83.069" y="283.395" style="fill:#4F81A9;" width="66.772" height="66.77"/>
				<path style="fill:#003170;" d="M149.841,350.164H83.069c0-18.436,14.947-33.383,33.387-33.383
					C134.894,316.781,149.841,331.728,149.841,350.164z"/>
			</g>
			<g>
				<rect x="16.299" y="283.395" style="fill:#003170;" width="66.77" height="66.77"/>
				<path style="fill:#E6F5FF;" d="M83.069,283.395v66.77c-18.436,0-33.385-14.947-33.385-33.383
					C49.684,298.342,64.634,283.395,83.069,283.395z"/>
			</g>
			<g>
				<rect x="283.384" y="216.622" style="fill:#003170;" width="66.772" height="66.773"/>
				<path style="fill:#1AC0BA;" d="M283.384,216.622h66.772c0,18.438-14.947,33.385-33.385,33.385
					C298.331,250.007,283.384,235.06,283.384,216.622z"/>
			</g>
			<g>
				<rect x="216.614" y="216.622" style="fill:#4F81A9;" width="66.77" height="66.77"/>
				<path style="fill:#E6F5FF;" d="M216.614,216.622h66.77c0,18.438-14.947,33.385-33.385,33.385S216.614,235.06,216.614,216.622z"
					/>
			</g>
			<g>
				<rect x="149.841" y="216.622" style="fill:#E6F5FF;" width="66.773" height="66.773"/>
				<path style="fill:#003170;" d="M149.841,216.622h66.773c0,18.438-14.948,33.385-33.388,33.385
					C164.789,250.007,149.841,235.06,149.841,216.622z"/>
			</g>
			<g>
				<rect x="83.069" y="216.622" style="fill:#E6F5FF;" width="66.772" height="66.773"/>
				<path style="fill:#003170;" d="M83.069,216.622h66.772c0,18.438-14.947,33.385-33.385,33.385
					C98.017,250.007,83.069,235.06,83.069,216.622z"/>
			</g>
			<g>
				<rect x="16.299" y="216.622" style="fill:#003170;" width="66.77" height="66.773"/>
				<path style="fill:#1AC0BA;" d="M83.069,216.622v66.773c-18.438,0-33.385-14.948-33.385-33.388
					C49.684,231.569,64.632,216.622,83.069,216.622z"/>
			</g>
			<g>
				<rect x="283.384" y="149.85" style="fill:#E6F5FF;" width="66.771" height="66.77"/>
				<path style="fill:#4F81A9;" d="M283.384,149.85h66.771c0,18.438-14.948,33.385-33.388,33.385
					C298.331,183.234,283.384,168.287,283.384,149.85z"/>
			</g>
			<g>
				<rect x="216.614" y="149.85" style="fill:#E6F5FF;" width="66.77" height="66.77"/>
				<path style="fill:#1AC0BA;" d="M216.614,149.85h66.77c0,18.438-14.947,33.385-33.388,33.385
					C231.561,183.234,216.614,168.287,216.614,149.85z"/>
			</g>
			<g>
				<rect x="149.841" y="149.85" style="fill:#003170;" width="66.773" height="66.77"/>
				<path style="fill:#1AC0BA;" d="M216.614,216.62h-66.773c0-18.436,14.948-33.383,33.385-33.383
					C201.666,183.237,216.614,198.184,216.614,216.62z"/>
			</g>
			<g>
				<rect x="83.071" y="149.85" style="fill:#1AC0BA;" width="66.77" height="66.77"/>
				<path style="fill:#4F81A9;" d="M149.841,149.85v66.77c-18.437,0-33.385-14.948-33.385-33.383
					C116.457,164.797,131.404,149.85,149.841,149.85z"/>
			</g>
			<g>
				<rect x="16.299" y="149.85" style="fill:#E6F5FF;" width="66.772" height="66.77"/>
				<path style="fill:#4F81A9;" d="M83.071,149.85v66.77c-18.438,0-33.385-14.948-33.385-33.383
					C49.687,164.797,64.634,149.85,83.071,149.85z"/>
			</g>
			<g>
				<rect x="283.384" y="83.077" style="fill:#E6F5FF;" width="66.771" height="66.772"/>
				<path style="fill:#1AC0BA;" d="M350.154,149.85h-66.771c0-18.44,14.947-33.387,33.385-33.387S350.154,131.41,350.154,149.85z"/>
			</g>
			<g>
				<rect x="216.611" y="83.077" style="fill:#E6F5FF;" width="66.772" height="66.772"/>
				<path style="fill:#1AC0BA;" d="M283.384,149.85h-66.772c0-18.44,14.947-33.387,33.385-33.387
					C268.436,116.462,283.384,131.41,283.384,149.85z"/>
			</g>
			<g>
				<rect x="149.841" y="83.077" style="fill:#003170;" width="66.77" height="66.77"/>
				<path style="fill:#E6F5FF;" d="M149.841,83.077h66.77c0,18.438-14.947,33.385-33.385,33.385
					C164.789,116.462,149.841,101.515,149.841,83.077z"/>
			</g>
			<g>
				<rect x="83.069" y="83.077" style="fill:#E6F5FF;" width="66.772" height="66.772"/>
				<path style="fill:#003170;" d="M83.069,83.077h66.772c0,18.438-14.947,33.385-33.385,33.385
					C98.017,116.462,83.069,101.515,83.069,83.077z"/>
			</g>
			<g>
				<rect x="16.299" y="83.077" style="fill:#003170;" width="66.77" height="66.772"/>
				<path style="fill:#1AC0BA;" d="M83.069,149.85h-66.77c0-18.44,14.947-33.387,33.387-33.387
					C68.122,116.462,83.069,131.41,83.069,149.85z"/>
			</g>
			<g>
				<rect x="283.384" y="16.305" style="fill:#E6F5FF;" width="66.771" height="66.77"/>
				<path style="fill:#003170;" d="M283.384,16.305h66.771c0,18.437-14.948,33.385-33.386,33.385S283.384,34.742,283.384,16.305z"/>
			</g>
			<g>
				<rect x="216.614" y="16.305" style="fill:#4F81A9;" width="66.77" height="66.77"/>
				<path style="fill:#E6F5FF;" d="M216.614,16.305h66.77c0,18.437-14.947,33.385-33.385,33.385S216.614,34.742,216.614,16.305z"/>
			</g>
			<g>
				<rect x="149.841" y="16.305" style="fill:#1AC0BA;" width="66.773" height="66.77"/>
				<path style="fill:#E6F5FF;" d="M216.614,83.075h-66.773c0-18.435,14.948-33.383,33.385-33.383
					C201.666,49.692,216.614,64.64,216.614,83.075z"/>
			</g>
			<g>
				<rect x="83.069" y="16.305" style="fill:#4F81A9;" width="66.772" height="66.77"/>
				<path style="fill:#003170;" d="M83.069,16.305h66.772c0,18.437-14.947,33.385-33.385,33.385
					C98.017,49.69,83.069,34.742,83.069,16.305z"/>
			</g>
			<g>
				<rect x="16.299" y="16.305" style="fill:#E6F5FF;" width="66.77" height="66.77"/>
				<path style="fill:#1AC0BA;" d="M16.299,16.305h66.77c0,18.437-14.948,33.385-33.385,33.385S16.299,34.742,16.299,16.305z"/>
			</g>
		</g>
	</g>
</g>
<g id="Layer_1">
</g>
</svg>
