<?xml version="1.0" encoding="utf-8"?>
<!-- Generator: Adobe Illustrator 27.5.0, SVG Export Plug-In . SVG Version: 6.00 Build 0)  -->
<svg version="1.1" id="Layer_1" xmlns="http://www.w3.org/2000/svg" xmlns:xlink="http://www.w3.org/1999/xlink" x="0px" y="0px"
	 viewBox="0 0 2314.427 3039.819" style="enable-background:new 0 0 2314.427 3039.819;" xml:space="preserve">
<g>
	<g>
		
			<ellipse transform="matrix(0.1088 -0.9941 0.9941 0.1088 204.125 2507.9673)" style="fill:#c2cbaf;" cx="1500.78" cy="1140.141" rx="27.021" ry="27.02"/>
	</g>
	<g>
		
			<ellipse transform="matrix(1 -0.0065 0.0065 1 -5.0996 13.5391)" style="fill:#c2cbaf;" cx="2087.978" cy="794.187" rx="27.021" ry="27.021"/>
	</g>
	<g>
		
			<ellipse transform="matrix(0.1091 -0.994 0.994 0.1091 1276.312 2011.7777)" style="fill:#c2cbaf;" cx="1760.505" cy="293.848" rx="27.021" ry="27.02"/>
	</g>
	<g>
		
			<ellipse transform="matrix(0.2298 -0.9732 0.9732 0.2298 -1572.9023 2576.303)" style="fill:#c2cbaf;" cx="841.199" cy="2281.875" rx="27.02" ry="27.02"/>
	</g>
	<g>
		
			<ellipse transform="matrix(0.2298 -0.9732 0.9732 0.2298 -2685.8279 2441.0051)" style="fill:#c2cbaf;" cx="199.257" cy="2917.346" rx="27.02" ry="27.02"/>
	</g>
	<g>
		
			<ellipse transform="matrix(0.1222 -0.9925 0.9925 0.1222 -2217.5867 3311.9712)" style="fill:#c2cbaf;" cx="763.553" cy="2909.647" rx="27.02" ry="27.02"/>
	</g>
	<g>
		<circle style="fill:#c2cbaf;" cx="1875.828" cy="2263.144" r="27.02"/>
	</g>
	<g>
		
			<ellipse transform="matrix(0.4746 -0.8802 0.8802 0.4746 -960.1008 2379.4172)" style="fill:#c2cbaf;" cx="1513.179" cy="1993.982" rx="27.02" ry="27.021"/>
	</g>
	<g>
		
			<ellipse transform="matrix(0.9239 -0.3827 0.3827 0.9239 -638.8716 534.7169)" style="fill:#c2cbaf;" cx="1024.667" cy="1873.272" rx="27.021" ry="27.02"/>
	</g>
	<g>
		
			<ellipse transform="matrix(0.7071 -0.7071 0.7071 0.7071 -883.2165 1005.5594)" style="fill:#c2cbaf;" cx="772.209" cy="1568.916" rx="27.02" ry="27.02"/>
	</g>
	<g>
		
			<ellipse transform="matrix(0.3296 -0.9441 0.9441 0.3296 175.9776 3007.5803)" style="fill:#c2cbaf;" cx="2205.789" cy="1379.875" rx="27.021" ry="27.021"/>
	</g>
	<g>
		<path style="fill:#c2cbaf;" d="M2065.542,1082.904c0,14.923-12.098,27.021-27.021,27.021c-14.923,0-27.02-12.098-27.02-27.021
			c0-14.923,12.097-27.02,27.02-27.02C2053.444,1055.883,2065.542,1067.981,2065.542,1082.904z"/>
	</g>
	<g>
		
			<ellipse transform="matrix(0.8817 -0.4719 0.4719 0.8817 -1080.408 433.787)" style="fill:#c2cbaf;" cx="324.723" cy="2371.116" rx="27.02" ry="27.02"/>
	</g>
	<g>
		<path style="fill:#c2cbaf;" d="M1840.542,1442.307c0,14.923-12.098,27.021-27.021,27.021c-14.923,0-27.02-12.098-27.02-27.021
			c0-14.923,12.097-27.021,27.02-27.021C1828.445,1415.286,1840.542,1427.384,1840.542,1442.307z"/>
	</g>
	<g>
		
			<ellipse transform="matrix(0.9482 -0.3178 0.3178 0.9482 -70.3078 210.7217)" style="fill:#c2cbaf;" cx="610.751" cy="320.869" rx="27.02" ry="27.02"/>
	</g>
	<g>
		
			<ellipse transform="matrix(0.2298 -0.9732 0.9732 0.2298 -673.4492 1079.7705)" style="fill:#c2cbaf;" cx="345.449" cy="965.355" rx="27.02" ry="27.02"/>
	</g>
	<g>
		<g>
			<path style="fill:#feffda;" d="M2044.016,1427.789c-16.462,3.59-26.406,17.572-34.279,31.392
				c-21.433,37.626-37.328,79.039-53.551,119.065c-6.621,16.336-13.501,32.818-18.245,49.825
				c-2.578,9.243-4.948,19.388-2.871,28.991c4.32,19.97,24.036,28.481,42.795,27.633c15.467-0.699,30.8-3.905,45.916-7.033
				c25.505-5.277,50.906-11.057,76.36-16.574c34.938-7.572,71.364-13.084,105.289-24.644c17.24-5.875,34.713-15.691,36.172-36.024
				c1.297-18.084-14.18-33.307-25.656-45.253c-35.401-36.851-74.462-71.388-114.353-103.294
				C2085.36,1438.889,2066.233,1423.261,2044.016,1427.789c-24.625,5.018-15.946,43.07,8.671,38.053
				c5.556-1.132-5.586-0.413,0.264,0.023c4.2,0.313-3.596-1.542-1.812-0.384c0.88,0.571,3.324,1.29,4.361,1.46
				c1.388,0.229-4.519-2.589-0.029,0.083c1.467,0.873,2.966,1.688,4.417,2.59c4.739,2.945,9.253,6.259,13.69,9.636
				c31.645,24.082,63.358,53.837,93.311,82.318c10.2,9.699,20.45,19.5,29.649,30.174c1.257,1.458,2.459,2.958,3.686,4.442
				c3.532,4.273-0.244-0.99,0.36,0.38c0.53,1.203,1.512,2.609,2.26,3.703c2.443,3.571-0.055-0.552-0.304-1.383
				c1.729,5.77,0.343-4.572,0.098-0.557c-0.184,3.015,1.285-5.964,0.543-3.009c-0.528,2.102-2.45,5.416,0.837-1.012
				c-0.881,1.722-3.732,5.111,1.062-0.71c-0.614,0.746-1.356,1.494-2.132,2.067c-1.121,0.828,4.836-2.606,0.753-0.615
				c-1.726,0.842-3.438,1.754-5.161,2.608c-4.785,2.372,1.297-0.239-0.726,0.367c-1.89,0.565-3.745,1.268-5.632,1.852
				c-5.752,1.779-11.591,3.284-17.435,4.728c-16.254,4.016-32.643,7.492-49.007,11.031c-42.97,9.292-85.842,19.865-129.129,27.593
				c-5.277,0.942-10.58,1.593-15.873,2.403c-4.621,0.708,4.447,0.026,0.069-0.005c-1.146-0.008-2.306,0.139-3.454,0.161
				c-1.995,0.039-3.979-0.179-5.965-0.174c-4.768,0.01,4.295,1.326,0.129,0.031c-5.182-1.61,3.476,2.293,0.039,0.227
				c-3.976-2.39,2.29,2.095,0.808,0.797c-3.344-2.93-0.264-0.202,0.63,1.217c-2.834-4.499,0.809,5.372-0.036-0.587
				c1.104,7.784,0.107,3.302,0.393,1.324c0.106-0.738,0.203-1.599,0.216-2.343c0.077-4.314-0.574,2.37-0.199,0.876
				c2.967-11.839,6.839-23.263,11.176-34.681c16.062-42.287,33.321-85.313,53.954-124.651c2.529-4.823,5.151-9.612,8.07-14.212
				c1.08-1.702,2.256-3.332,3.374-5.007c3.251-4.872-3.108,2.37,0.794-1.031c0.829-0.723,2.024-1.669,2.666-2.543
				c1.899-2.588-4.764,2.98-1.231,0.947c4.968-2.859-5.784,1.242,0.517-0.132C2077.232,1460.49,2068.582,1422.432,2044.016,1427.789
				z"/>
		</g>
	</g>
	<g>
		<g>
			<path style="fill:#feffda;" d="M1782.226,477.686c-16.463,3.59-26.407,17.572-34.279,31.392
				c-21.433,37.626-37.328,79.039-53.551,119.065c-6.621,16.336-13.501,32.818-18.245,49.825c-2.578,9.243-4.948,19.388-2.871,28.99
				c4.32,19.97,24.036,28.481,42.795,27.633c15.467-0.7,30.8-3.906,45.916-7.033c25.505-5.277,50.906-11.057,76.359-16.574
				c34.938-7.572,71.364-13.084,105.289-24.644c17.24-5.875,34.713-15.691,36.172-36.023c1.297-18.085-14.18-33.307-25.656-45.253
				c-35.402-36.851-74.462-71.388-114.354-103.295C1823.57,488.785,1804.443,473.159,1782.226,477.686
				c-24.625,5.018-15.946,43.07,8.671,38.053c5.556-1.132-5.587-0.413,0.264,0.023c4.2,0.313-3.596-1.542-1.812-0.384
				c0.88,0.571,3.325,1.289,4.361,1.46c1.388,0.229-4.519-2.589-0.029,0.083c1.467,0.873,2.966,1.688,4.417,2.59
				c4.739,2.945,9.253,6.259,13.69,9.636c31.645,24.082,63.358,53.837,93.311,82.318c10.2,9.699,20.45,19.5,29.649,30.174
				c1.257,1.458,2.459,2.958,3.686,4.442c3.532,4.273-0.244-0.991,0.36,0.38c0.53,1.203,1.512,2.609,2.26,3.704
				c2.443,3.571-0.055-0.552-0.304-1.383c1.729,5.77,0.342-4.572,0.098-0.556c-0.184,3.014,1.286-5.964,0.544-3.009
				c-0.528,2.102-2.451,5.416,0.836-1.012c-0.88,1.722-3.732,5.111,1.062-0.71c-0.614,0.746-1.356,1.494-2.132,2.067
				c-1.122,0.828,4.836-2.606,0.753-0.615c-1.726,0.842-3.438,1.754-5.161,2.608c-4.785,2.372,1.297-0.239-0.726,0.367
				c-1.89,0.565-3.745,1.268-5.631,1.852c-5.753,1.779-11.591,3.284-17.435,4.728c-16.255,4.015-32.644,7.492-49.007,11.03
				c-42.97,9.292-85.841,19.865-129.128,27.593c-5.277,0.942-10.581,1.592-15.873,2.403c-4.621,0.707,4.447,0.026,0.069-0.005
				c-1.146-0.008-2.307,0.139-3.454,0.161c-1.995,0.039-3.979-0.179-5.965-0.175c-4.768,0.01,4.295,1.326,0.129,0.031
				c-5.182-1.61,3.476,2.292,0.039,0.226c-3.977-2.39,2.289,2.095,0.808,0.797c-3.344-2.93-0.264-0.201,0.63,1.217
				c-2.834-4.499,0.809,5.372-0.036-0.587c1.105,7.784,0.107,3.302,0.393,1.324c0.106-0.738,0.203-1.599,0.216-2.342
				c0.077-4.314-0.574,2.37-0.2,0.876c2.967-11.839,6.839-23.263,11.176-34.68c16.062-42.287,33.321-85.313,53.954-124.651
				c2.53-4.823,5.151-9.612,8.071-14.212c1.08-1.702,2.256-3.332,3.374-5.007c3.252-4.872-3.108,2.37,0.794-1.032
				c0.829-0.723,2.025-1.669,2.666-2.543c1.899-2.588-4.764,2.98-1.231,0.947c4.968-2.859-5.784,1.242,0.517-0.132
				C1815.442,510.387,1806.792,472.329,1782.226,477.686z"/>
		</g>
	</g>
	<g>
		<g>
			<path style="fill:#feffda;" d="M560.402,421.039c-15.499,6.609-22.649,22.206-27.794,37.256
				c-14.007,40.974-21.866,84.631-30.305,126.987c-3.445,17.287-7.116,34.765-8.591,52.36c-0.801,9.562-1.23,19.972,2.609,29.015
				c7.983,18.808,28.945,23.476,47.213,19.129c15.063-3.584,29.523-9.604,43.787-15.508c24.065-9.96,47.935-20.395,71.905-30.581
				c32.902-13.982,67.651-26.218,98.811-43.926c15.835-8.999,31.16-21.915,28.785-42.16c-2.112-18.007-20.167-30.062-33.676-39.647
				c-41.677-29.569-86.514-56.18-131.675-80.051C603.094,424.199,581.378,412.431,560.402,421.039
				c-23.25,9.541-7.598,45.294,15.644,35.756c5.245-2.153-5.565,0.641,0.264-0.027c4.185-0.479-3.821-0.841-1.851-0.038
				c0.971,0.396,3.507,0.644,4.557,0.618c1.406-0.035-4.924-1.697-0.012,0.087c1.605,0.583,3.229,1.103,4.824,1.717
				c5.207,2.006,10.261,4.415,15.253,6.901c35.594,17.729,72.319,41.019,107.076,63.386c11.836,7.617,23.74,15.325,34.775,24.088
				c1.508,1.197,2.97,2.445,4.452,3.673c4.27,3.536-0.425-0.927,0.424,0.305c0.746,1.082,1.974,2.28,2.914,3.215
				c3.069,3.05-0.158-0.532-0.558-1.302c2.779,5.344-0.52-4.555-0.008-0.565c0.384,2.996,0.146-6.099-0.029-3.058
				c-0.125,2.163-1.393,5.779,0.632-1.151c-0.543,1.856-2.709,5.72,0.91-0.896c-0.464,0.847-1.052,1.721-1.707,2.43
				c-0.947,1.023,4.262-3.466,0.625-0.745c-1.538,1.15-3.049,2.366-4.582,3.529c-4.256,3.226,1.229-0.477-0.645,0.496
				c-1.75,0.909-3.441,1.947-5.185,2.874c-5.318,2.825-10.771,5.397-16.241,7.909c-15.215,6.989-30.663,13.473-46.074,20.013
				c-40.47,17.174-80.603,35.59-121.676,51.288c-5.007,1.914-10.095,3.546-15.142,5.333c-4.407,1.56,4.373-0.807,0.067-0.018
				c-1.127,0.207-2.24,0.568-3.363,0.805c-1.952,0.412-3.942,0.57-5.892,0.946c-4.682,0.902,4.467,0.498,0.132,0.006
				c-5.392-0.611,3.844,1.601,0.081,0.215c-4.354-1.603,2.641,1.629,0.943,0.632c-3.833-2.252-0.297-0.148,0.846,1.078
				c-3.626-3.889,1.801,5.125-0.145-0.57c2.543,7.44,0.724,3.223,0.634,1.227c-0.034-0.744-0.1-1.609-0.226-2.342
				c-0.732-4.252-0.12,2.435-0.032,0.897c0.697-12.185,2.362-24.132,4.484-36.16c7.859-44.547,16.755-90.044,29.655-132.55
				c1.582-5.211,3.26-10.406,5.266-15.472c0.742-1.874,1.592-3.695,2.376-5.55c2.282-5.395-2.609,2.91,0.587-1.162
				c0.679-0.866,1.676-2.018,2.143-2.997c1.38-2.898-4.122,3.82-1.032,1.161c4.344-3.739-5.449,2.303,0.483-0.226
				C599.155,446.94,583.531,411.176,560.402,421.039z"/>
		</g>
	</g>
	<g>
		<g>
			<path style="fill:#feffda;" d="M385.111,1614.696c-15.499,6.609-22.649,22.206-27.794,37.256
				c-14.007,40.974-21.866,84.631-30.305,126.987c-3.444,17.287-7.116,34.766-8.591,52.361c-0.802,9.562-1.23,19.972,2.609,29.015
				c7.983,18.808,28.945,23.476,47.213,19.13c15.063-3.584,29.523-9.604,43.787-15.508c24.065-9.96,47.935-20.395,71.905-30.581
				c32.902-13.981,67.651-26.218,98.811-43.926c15.835-8.999,31.16-21.915,28.785-42.16c-2.112-18.008-20.167-30.062-33.676-39.647
				c-41.676-29.569-86.514-56.179-131.675-80.051C427.802,1617.856,406.087,1606.088,385.111,1614.696
				c-23.25,9.541-7.598,45.294,15.644,35.756c5.245-2.152-5.565,0.641,0.264-0.027c4.184-0.479-3.821-0.841-1.852-0.038
				c0.971,0.396,3.507,0.644,4.557,0.618c1.406-0.035-4.924-1.697-0.013,0.087c1.605,0.583,3.229,1.102,4.824,1.717
				c5.207,2.006,10.261,4.415,15.253,6.901c35.595,17.729,72.319,41.019,107.076,63.386c11.836,7.617,23.74,15.325,34.775,24.088
				c1.508,1.197,2.97,2.445,4.452,3.673c4.27,3.535-0.425-0.927,0.424,0.306c0.746,1.082,1.974,2.28,2.914,3.215
				c3.069,3.05-0.158-0.532-0.558-1.302c2.779,5.344-0.52-4.555-0.008-0.565c0.384,2.995,0.146-6.1-0.029-3.058
				c-0.125,2.163-1.393,5.779,0.632-1.151c-0.542,1.856-2.709,5.719,0.911-0.897c-0.464,0.848-1.052,1.721-1.708,2.43
				c-0.947,1.023,4.262-3.466,0.625-0.745c-1.538,1.15-3.049,2.366-4.582,3.528c-4.256,3.226,1.229-0.477-0.644,0.496
				c-1.751,0.909-3.442,1.947-5.185,2.874c-5.318,2.825-10.771,5.397-16.241,7.909c-15.215,6.988-30.663,13.473-46.074,20.013
				c-40.47,17.175-80.602,35.59-121.676,51.288c-5.007,1.913-10.095,3.546-15.142,5.333c-4.406,1.56,4.373-0.807,0.067-0.018
				c-1.127,0.207-2.24,0.568-3.363,0.805c-1.952,0.412-3.942,0.57-5.892,0.946c-4.682,0.902,4.468,0.498,0.133,0.006
				c-5.392-0.611,3.844,1.601,0.08,0.215c-4.354-1.603,2.641,1.629,0.943,0.632c-3.833-2.252-0.297-0.148,0.847,1.078
				c-3.626-3.889,1.801,5.125-0.146-0.57c2.543,7.44,0.724,3.223,0.634,1.227c-0.033-0.744-0.1-1.609-0.226-2.342
				c-0.732-4.252-0.12,2.436-0.032,0.898c0.697-12.185,2.362-24.132,4.484-36.16c7.859-44.547,16.754-90.044,29.655-132.55
				c1.582-5.211,3.26-10.406,5.266-15.472c0.742-1.874,1.592-3.695,2.376-5.55c2.282-5.395-2.609,2.91,0.587-1.162
				c0.679-0.866,1.676-2.018,2.142-2.997c1.38-2.898-4.121,3.82-1.032,1.161c4.344-3.739-5.449,2.303,0.483-0.227
				C423.864,1640.598,408.239,1604.833,385.111,1614.696z"/>
		</g>
	</g>
	<g>
		<g>
			<path style="fill:#feffda;" d="M1300.084,2186.27c-16.463,3.59-26.407,17.572-34.279,31.392
				c-21.433,37.626-37.328,79.039-53.551,119.065c-6.621,16.336-13.501,32.817-18.245,49.825c-2.578,9.243-4.948,19.388-2.871,28.99
				c4.319,19.97,24.036,28.481,42.795,27.633c15.467-0.699,30.8-3.905,45.916-7.033c25.505-5.277,50.906-11.057,76.36-16.574
				c34.938-7.572,71.364-13.084,105.289-24.644c17.24-5.875,34.713-15.691,36.172-36.024c1.298-18.084-14.18-33.307-25.656-45.253
				c-35.401-36.851-74.462-71.387-114.353-103.294C1341.428,2197.369,1322.3,2181.742,1300.084,2186.27
				c-24.626,5.018-15.946,43.07,8.671,38.053c5.555-1.132-5.587-0.413,0.264,0.023c4.2,0.313-3.596-1.542-1.811-0.384
				c0.88,0.571,3.325,1.29,4.361,1.46c1.388,0.229-4.52-2.589-0.029,0.083c1.467,0.873,2.966,1.688,4.417,2.59
				c4.739,2.945,9.253,6.259,13.69,9.636c31.645,24.082,63.358,53.837,93.311,82.317c10.201,9.699,20.45,19.5,29.649,30.174
				c1.257,1.458,2.459,2.958,3.686,4.442c3.532,4.272-0.244-0.991,0.36,0.379c0.53,1.203,1.512,2.61,2.26,3.704
				c2.443,3.571-0.055-0.552-0.304-1.383c1.729,5.77,0.342-4.572,0.098-0.556c-0.184,3.014,1.286-5.965,0.544-3.01
				c-0.528,2.102-2.451,5.416,0.836-1.012c-0.88,1.722-3.732,5.111,1.062-0.71c-0.614,0.746-1.356,1.494-2.132,2.067
				c-1.122,0.828,4.836-2.606,0.753-0.615c-1.726,0.842-3.438,1.754-5.161,2.608c-4.785,2.372,1.297-0.239-0.726,0.367
				c-1.89,0.565-3.745,1.268-5.632,1.852c-5.752,1.779-11.591,3.284-17.435,4.728c-16.255,4.016-32.644,7.492-49.007,11.031
				c-42.97,9.292-85.841,19.865-129.128,27.593c-5.277,0.942-10.581,1.593-15.874,2.403c-4.621,0.708,4.447,0.026,0.069-0.005
				c-1.146-0.008-2.306,0.139-3.454,0.161c-1.995,0.039-3.979-0.179-5.965-0.174c-4.768,0.01,4.295,1.326,0.129,0.031
				c-5.182-1.61,3.476,2.292,0.039,0.227c-3.976-2.39,2.289,2.095,0.808,0.797c-3.343-2.93-0.264-0.202,0.63,1.217
				c-2.834-4.499,0.809,5.372-0.036-0.587c1.105,7.784,0.107,3.302,0.393,1.324c0.107-0.738,0.203-1.599,0.217-2.343
				c0.077-4.314-0.574,2.37-0.2,0.876c2.967-11.84,6.839-23.263,11.176-34.681c16.062-42.287,33.321-85.313,53.954-124.651
				c2.53-4.823,5.151-9.612,8.07-14.212c1.08-1.702,2.256-3.332,3.374-5.007c3.252-4.872-3.108,2.37,0.794-1.032
				c0.829-0.723,2.025-1.669,2.666-2.543c1.899-2.588-4.764,2.98-1.231,0.947c4.968-2.859-5.784,1.242,0.517-0.132
				C1333.3,2218.971,1324.65,2180.913,1300.084,2186.27z"/>
		</g>
	</g>
	<g>
		<g>
			<path style="fill:#feffda;" d="M893.26,978.167c-15.576-6.426-31.713-0.598-46.055,6.277
				c-39.047,18.719-75.7,43.704-111.832,67.363c-14.746,9.656-29.789,19.284-43.376,30.561c-7.383,6.129-15.11,13.117-18.872,22.193
				c-7.824,18.875,3.534,37.1,19.436,47.087c13.112,8.235,27.54,14.333,41.746,20.372c23.969,10.19,48.14,19.906,72.203,29.87
				c33.03,13.676,66.109,29.893,100.578,39.714c17.516,4.991,37.469,6.874,50.249-9.007c11.367-14.125,7.316-35.453,4.687-51.808
				c-8.108-50.453-20.543-101.088-35.157-150.035C920.921,1010.839,914.1,987.1,893.26,978.167
				c-23.099-9.901-37.638,26.318-14.547,36.216c5.211,2.234-4.357-3.521,0.204,0.169c3.274,2.649-2.077-3.315-1.27-1.348
				c0.398,0.971,1.998,2.954,2.753,3.684c1.01,0.979-2.24-4.702-0.071,0.052c0.709,1.553,1.476,3.076,2.156,4.644
				c2.218,5.12,4.041,10.415,5.764,15.718c12.294,37.818,21.412,80.338,29.81,120.807c2.86,13.782,5.702,27.676,7.184,41.689
				c0.202,1.915,0.336,3.832,0.499,5.75c0.469,5.524,0.363-0.953,0.079,0.517c-0.249,1.29-0.244,3.006-0.252,4.331
				c-0.026,4.327,0.269-0.485,0.538-1.31c-1.865,5.727,2.885-3.563,0.397-0.402c-1.868,2.373,4.454-4.17,2.161-2.164
				c-1.631,1.427-5.099,3.056,1.264-0.355c-1.705,0.914-5.979,2.075,1.278,0.021c-0.93,0.263-1.965,0.456-2.93,0.484
				c-1.393,0.042,5.459,0.612,0.969-0.076c-1.898-0.291-3.825-0.517-5.728-0.796c-5.284-0.776,1.202,0.543-0.806-0.112
				c-1.876-0.612-3.801-1.091-5.684-1.686c-5.741-1.814-11.397-3.902-17.023-6.045c-15.647-5.958-31.098-12.435-46.563-18.847
				c-40.611-16.838-81.871-32.565-121.852-50.868c-4.874-2.231-9.604-4.718-14.415-7.066c-4.201-2.051,3.64,2.554,0.06,0.035
				c-0.937-0.659-1.975-1.2-2.931-1.835c-1.662-1.104-3.169-2.413-4.804-3.541c-3.924-2.708,2.775,3.536,0.088,0.099
				c-3.342-4.275,1.551,3.864-0.097,0.208c-1.907-4.229,0.689,3.026,0.21,1.116c-1.079-4.313-0.102-0.316-0.176,1.359
				c0.233-5.312-2.394,4.876,0.305-0.503c-3.526,7.027-1.793,2.775-0.431,1.312c0.508-0.546,1.078-1.199,1.512-1.802
				c2.52-3.502-1.822,1.621-0.663,0.606c9.182-8.041,18.872-15.225,28.939-22.14c37.288-25.609,75.98-51.143,115.345-71.725
				c4.826-2.523,9.708-4.966,14.728-7.085c1.857-0.784,3.752-1.454,5.625-2.193c5.448-2.153-3.905,0.178,1.24-0.396
				c1.094-0.122,2.615-0.219,3.639-0.572c3.035-1.046-5.613-0.264-1.552,0.077c5.712,0.48-5.461-2.274,0.5,0.186
				C901.937,1023.964,916.504,987.756,893.26,978.167z"/>
		</g>
	</g>
	<g>
		<g>
			<path style="fill:#feffda;" d="M670.966,2333.844c-15.576-6.426-31.713-0.598-46.055,6.278
				c-39.047,18.719-75.7,43.704-111.832,67.363c-14.746,9.656-29.789,19.284-43.375,30.562c-7.383,6.129-15.11,13.117-18.872,22.193
				c-7.824,18.875,3.534,37.1,19.436,47.087c13.112,8.235,27.54,14.333,41.746,20.372c23.969,10.19,48.14,19.906,72.203,29.87
				c33.03,13.677,66.109,29.893,100.578,39.715c17.516,4.991,37.469,6.874,50.249-9.007c11.367-14.125,7.315-35.453,4.687-51.807
				c-8.108-50.453-20.543-101.088-35.157-150.035C698.627,2366.516,691.806,2342.777,670.966,2333.844
				c-23.099-9.902-37.638,26.318-14.547,36.217c5.211,2.234-4.357-3.521,0.204,0.169c3.274,2.65-2.077-3.315-1.27-1.347
				c0.398,0.971,1.998,2.954,2.753,3.685c1.01,0.979-2.24-4.702-0.071,0.052c0.709,1.554,1.476,3.076,2.156,4.645
				c2.218,5.12,4.041,10.415,5.764,15.718c12.294,37.818,21.412,80.338,29.81,120.808c2.86,13.782,5.702,27.676,7.183,41.688
				c0.202,1.915,0.336,3.832,0.499,5.75c0.469,5.523,0.363-0.953,0.079,0.517c-0.249,1.29-0.244,3.006-0.251,4.332
				c-0.026,4.326,0.269-0.486,0.538-1.31c-1.865,5.727,2.885-3.563,0.397-0.402c-1.868,2.373,4.454-4.17,2.161-2.164
				c-1.631,1.427-5.099,3.056,1.264-0.355c-1.705,0.914-5.979,2.075,1.278,0.021c-0.929,0.263-1.965,0.456-2.93,0.484
				c-1.393,0.042,5.459,0.612,0.969-0.076c-1.898-0.291-3.825-0.517-5.728-0.796c-5.284-0.776,1.202,0.543-0.806-0.112
				c-1.875-0.612-3.801-1.091-5.684-1.686c-5.741-1.814-11.397-3.902-17.023-6.044c-15.647-5.958-31.098-12.435-46.563-18.847
				c-40.611-16.838-81.871-32.566-121.852-50.869c-4.874-2.231-9.603-4.718-14.416-7.066c-4.201-2.051,3.64,2.554,0.06,0.035
				c-0.937-0.659-1.975-1.2-2.931-1.835c-1.662-1.104-3.169-2.414-4.804-3.541c-3.924-2.708,2.775,3.536,0.088,0.099
				c-3.343-4.275,1.551,3.864-0.097,0.208c-1.907-4.229,0.689,3.026,0.21,1.116c-1.079-4.313-0.102-0.316-0.176,1.359
				c0.233-5.312-2.394,4.876,0.305-0.503c-3.526,7.027-1.793,2.775-0.431,1.312c0.508-0.545,1.078-1.198,1.512-1.802
				c2.52-3.502-1.822,1.621-0.663,0.606c9.182-8.041,18.872-15.225,28.939-22.139c37.288-25.609,75.98-51.143,115.345-71.725
				c4.826-2.523,9.708-4.966,14.728-7.085c1.857-0.784,3.752-1.453,5.625-2.194c5.448-2.152-3.905,0.178,1.24-0.396
				c1.094-0.122,2.615-0.218,3.639-0.572c3.035-1.046-5.613-0.264-1.551,0.077c5.712,0.479-5.462-2.274,0.5,0.186
				C679.643,2379.641,694.209,2343.433,670.966,2333.844z"/>
		</g>
	</g>
	<g>
		<g>
			<path style="fill:#feffda;" d="M1588.678,2721.964c-15.576-6.426-31.713-0.598-46.055,6.278
				c-39.047,18.719-75.7,43.704-111.832,67.363c-14.747,9.656-29.789,19.284-43.375,30.562c-7.383,6.128-15.11,13.117-18.872,22.193
				c-7.824,18.875,3.534,37.101,19.436,47.087c13.112,8.235,27.54,14.333,41.746,20.372c23.969,10.19,48.14,19.906,72.203,29.87
				c33.03,13.677,66.109,29.893,100.578,39.714c17.516,4.991,37.469,6.875,50.249-9.007c11.367-14.125,7.316-35.453,4.687-51.808
				c-8.108-50.453-20.543-101.088-35.157-150.035C1616.338,2754.636,1609.517,2730.897,1588.678,2721.964
				c-23.099-9.901-37.638,26.318-14.547,36.217c5.211,2.234-4.356-3.521,0.204,0.169c3.274,2.649-2.077-3.316-1.27-1.348
				c0.398,0.971,1.998,2.954,2.753,3.685c1.011,0.979-2.24-4.703-0.071,0.052c0.709,1.553,1.476,3.076,2.156,4.644
				c2.218,5.12,4.04,10.415,5.764,15.718c12.294,37.818,21.412,80.338,29.81,120.808c2.86,13.782,5.702,27.676,7.183,41.688
				c0.202,1.915,0.337,3.832,0.5,5.75c0.469,5.523,0.363-0.953,0.079,0.517c-0.249,1.29-0.244,3.006-0.251,4.332
				c-0.026,4.326,0.269-0.486,0.538-1.31c-1.865,5.727,2.885-3.563,0.397-0.402c-1.868,2.373,4.454-4.17,2.161-2.164
				c-1.631,1.427-5.099,3.056,1.264-0.355c-1.705,0.914-5.979,2.075,1.277,0.021c-0.929,0.263-1.965,0.456-2.93,0.484
				c-1.393,0.042,5.459,0.612,0.969-0.076c-1.898-0.291-3.825-0.517-5.728-0.796c-5.284-0.776,1.202,0.542-0.806-0.112
				c-1.875-0.612-3.801-1.091-5.684-1.686c-5.741-1.814-11.397-3.902-17.023-6.044c-15.647-5.958-31.098-12.435-46.563-18.847
				c-40.611-16.837-81.871-32.565-121.852-50.869c-4.874-2.231-9.604-4.718-14.416-7.066c-4.201-2.05,3.64,2.554,0.059,0.035
				c-0.937-0.659-1.975-1.2-2.931-1.835c-1.662-1.104-3.169-2.413-4.804-3.541c-3.924-2.708,2.776,3.536,0.088,0.099
				c-3.342-4.276,1.551,3.864-0.097,0.208c-1.907-4.229,0.689,3.026,0.21,1.116c-1.079-4.313-0.102-0.316-0.176,1.359
				c0.233-5.312-2.394,4.876,0.304-0.503c-3.526,7.027-1.792,2.775-0.431,1.312c0.508-0.546,1.078-1.199,1.512-1.802
				c2.52-3.502-1.822,1.621-0.663,0.606c9.182-8.041,18.871-15.225,28.939-22.14c37.288-25.609,75.98-51.143,115.345-71.725
				c4.826-2.523,9.708-4.966,14.728-7.084c1.857-0.784,3.752-1.454,5.625-2.193c5.448-2.153-3.905,0.178,1.24-0.396
				c1.094-0.122,2.615-0.218,3.64-0.572c3.035-1.046-5.613-0.264-1.552,0.077c5.711,0.479-5.462-2.274,0.5,0.186
				C1597.354,2767.762,1611.921,2731.553,1588.678,2721.964z"/>
		</g>
	</g>
	<g>
		<g>
			<path style="fill:#feffda;" d="M81.983,1036.21c35.189-7.352,70.658-14.667,106.373-18.929c0.975-0.117,9.041-0.247,9.049-0.263
				c0.006-0.011-0.883-0.906-0.868-1.011c0.004-0.028-1.374-2.46-1.26-2.451c0.044,0.003-0.212,2.74-0.336,3.109
				c-1.847,5.508-4.764,14.83-7.191,21.774c-6.326,18.096-13.014,36.066-19.803,53.993c-4.647,12.271-9.349,24.522-14.132,36.741
				c-8.062,20.597,24.198,32.45,32.274,11.818c12.414-31.715,24.597-63.564,35.683-95.769c3.267-9.49,7.355-19.434,7.75-29.557
				c0.579-14.838-8.007-27.625-22.5-31.548c-10.969-2.969-22.422-1.08-33.47,0.481c-12.078,1.707-24.113,3.714-36.122,5.844
				c-20.39,3.617-40.714,7.61-60.984,11.845C54.814,1006.809,60.304,1040.739,81.983,1036.21L81.983,1036.21z"/>
		</g>
	</g>
	<g>
		<g>
			<path style="fill:#feffda;" d="M1270.91,868.805c35.189-7.352,70.658-14.667,106.373-18.929c0.975-0.117,9.04-0.247,9.049-0.263
				c0.006-0.011-0.883-0.906-0.868-1.011c0.004-0.028-1.374-2.46-1.26-2.451c0.045,0.003-0.213,2.74-0.336,3.109
				c-1.848,5.508-4.764,14.83-7.192,21.774c-6.326,18.096-13.014,36.066-19.803,53.993c-4.647,12.271-9.349,24.522-14.132,36.741
				c-8.062,20.597,24.198,32.45,32.274,11.818c12.414-31.715,24.597-63.563,35.683-95.769c3.267-9.49,7.355-19.434,7.75-29.557
				c0.579-14.838-8.007-27.625-22.5-31.548c-10.968-2.969-22.422-1.08-33.47,0.481c-12.078,1.707-24.113,3.714-36.122,5.844
				c-20.39,3.617-40.714,7.611-60.984,11.845C1243.741,839.403,1249.23,873.334,1270.91,868.805L1270.91,868.805z"/>
		</g>
	</g>
	<g>
		<g>
			<path style="fill:#feffda;" d="M218.528,2057.945c35.189-7.352,70.658-14.667,106.373-18.929c0.975-0.116,9.04-0.247,9.049-0.262
				c0.006-0.011-0.883-0.906-0.868-1.011c0.004-0.028-1.375-2.46-1.26-2.451c0.044,0.004-0.213,2.74-0.336,3.108
				c-1.848,5.508-4.764,14.831-7.191,21.775c-6.326,18.096-13.014,36.066-19.803,53.993c-4.647,12.271-9.349,24.522-14.132,36.741
				c-8.062,20.597,24.198,32.45,32.274,11.818c12.414-31.715,24.597-63.563,35.684-95.769c3.267-9.49,7.355-19.434,7.75-29.557
				c0.579-14.838-8.007-27.625-22.5-31.548c-10.968-2.969-22.422-1.08-33.47,0.481c-12.078,1.707-24.113,3.714-36.123,5.844
				c-20.39,3.617-40.714,7.61-60.984,11.845C191.359,2028.543,196.848,2062.474,218.528,2057.945L218.528,2057.945z"/>
		</g>
	</g>
	<g>
		<g>
			<path style="fill:#feffda;" d="M336.556,319.091c1.048-35.934,2.197-72.131,6.372-107.856c0.114-0.975,1.865-8.849,1.853-8.861
				c-0.009-0.009-1.086,0.648-1.185,0.609c-0.026-0.01-2.712,0.764-2.677,0.655c0.014-0.043,2.615,0.845,2.945,1.051
				c4.926,3.079,13.313,8.088,19.5,12.066c16.125,10.367,32.042,21.057,47.894,31.836c10.851,7.378,21.67,14.804,32.438,22.302
				c18.153,12.639,37.195-15.973,19.012-28.633c-27.95-19.46-56.085-38.728-84.822-57.011c-8.468-5.387-17.186-11.68-26.938-14.422
				c-14.295-4.02-28.73,1.351-35.921,14.532c-5.442,9.975-6.273,21.553-7.329,32.661c-1.154,12.143-2.005,24.315-2.731,36.49
				c-1.233,20.671-2.083,41.366-2.687,62.066C301.635,338.663,335.911,341.229,336.556,319.091L336.556,319.091z"/>
		</g>
	</g>
	<g>
		<g>
			<path style="fill:#feffda;" d="M359.009,1373.178c1.048-35.933,2.197-72.131,6.372-107.856c0.114-0.975,1.865-8.849,1.853-8.861
				c-0.009-0.009-1.086,0.648-1.185,0.609c-0.026-0.01-2.712,0.764-2.677,0.655c0.014-0.043,2.615,0.845,2.945,1.051
				c4.926,3.08,13.313,8.088,19.5,12.066c16.125,10.367,32.042,21.058,47.894,31.836c10.851,7.378,21.67,14.804,32.439,22.302
				c18.152,12.639,37.195-15.973,19.011-28.633c-27.95-19.46-56.085-38.728-84.822-57.011c-8.468-5.388-17.186-11.68-26.938-14.422
				c-14.295-4.02-28.73,1.351-35.921,14.532c-5.442,9.975-6.273,21.553-7.329,32.661c-1.154,12.143-2.006,24.315-2.731,36.49
				c-1.232,20.671-2.083,41.366-2.687,62.065C324.088,1392.751,358.364,1395.316,359.009,1373.178L359.009,1373.178z"/>
		</g>
	</g>
	<g>
		<g>
			<path style="fill:#feffda;" d="M1157.798,2143.552c1.048-35.933,2.197-72.131,6.372-107.856c0.114-0.975,1.865-8.849,1.853-8.861
				c-0.009-0.009-1.086,0.648-1.185,0.609c-0.026-0.01-2.712,0.764-2.677,0.655c0.014-0.043,2.615,0.845,2.945,1.051
				c4.926,3.08,13.313,8.088,19.5,12.066c16.125,10.367,32.042,21.057,47.894,31.836c10.851,7.378,21.67,14.804,32.438,22.302
				c18.153,12.639,37.195-15.973,19.012-28.633c-27.95-19.46-56.085-38.728-84.822-57.011c-8.468-5.388-17.186-11.68-26.938-14.422
				c-14.295-4.02-28.73,1.351-35.921,14.532c-5.442,9.975-6.273,21.553-7.329,32.661c-1.154,12.143-2.005,24.315-2.731,36.49
				c-1.233,20.671-2.083,41.366-2.687,62.065C1122.877,2163.125,1157.152,2165.69,1157.798,2143.552L1157.798,2143.552z"/>
		</g>
	</g>
	<g>
		<g>
			<path style="fill:#feffda;" d="M1548.158,493.738c1.048-35.934,2.197-72.13,6.372-107.856c0.114-0.975,1.866-8.849,1.853-8.861
				c-0.009-0.009-1.086,0.648-1.185,0.609c-0.026-0.01-2.712,0.764-2.677,0.655c0.014-0.043,2.615,0.845,2.945,1.051
				c4.926,3.08,13.313,8.088,19.5,12.066c16.125,10.367,32.042,21.057,47.894,31.836c10.851,7.378,21.67,14.805,32.438,22.302
				c18.152,12.639,37.195-15.973,19.012-28.633c-27.95-19.46-56.085-38.728-84.822-57.011c-8.468-5.388-17.186-11.68-26.938-14.422
				c-14.295-4.02-28.731,1.351-35.921,14.532c-5.442,9.975-6.273,21.553-7.329,32.661c-1.154,12.143-2.005,24.315-2.731,36.49
				c-1.232,20.672-2.083,41.366-2.687,62.065C1513.236,513.311,1547.512,515.876,1548.158,493.738L1548.158,493.738z"/>
		</g>
	</g>
	<g>
		<g>
			<path style="fill:#feffda;" d="M1990.627,2837.608c1.048-35.934,2.197-72.131,6.372-107.856c0.114-0.975,1.865-8.849,1.853-8.861
				c-0.009-0.009-1.086,0.648-1.185,0.609c-0.026-0.01-2.712,0.764-2.677,0.655c0.014-0.042,2.615,0.845,2.945,1.051
				c4.926,3.08,13.313,8.088,19.5,12.066c16.125,10.367,32.042,21.057,47.894,31.836c10.851,7.378,21.67,14.804,32.438,22.302
				c18.152,12.638,37.195-15.973,19.011-28.633c-27.95-19.46-56.085-38.728-84.822-57.011c-8.468-5.388-17.186-11.68-26.938-14.422
				c-14.294-4.02-28.731,1.351-35.921,14.532c-5.442,9.975-6.274,21.554-7.329,32.661c-1.154,12.143-2.005,24.314-2.731,36.49
				c-1.232,20.671-2.083,41.366-2.687,62.065C1955.705,2857.181,1989.981,2859.746,1990.627,2837.608L1990.627,2837.608z"/>
		</g>
	</g>
	<g>
		<g>
			<path style="fill:#4a5634;" d="M1912.78,924.73c-0.4,26.525-17.352,51.083-42.929,59.79c-26.33,8.964-55.963,1.74-74.032-19.79
				c-17.435-20.774-19.05-50.604-4.733-73.46c14.063-22.45,42.35-34.303,68.346-29.158
				C1889.883,868.138,1912.312,893.707,1912.78,924.73c0.349,23.12,36.313,23.188,35.963,0
				c-0.647-42.876-28.002-79.762-68.204-94.084c-38.315-13.65-84.608-1.673-110.904,29.526
				c-27.376,32.481-32.479,79.647-9.601,116.17c22.544,35.989,65.109,53.535,106.572,46.135
				c47.001-8.388,81.424-50.456,82.137-97.746C1949.093,901.58,1913.13,901.572,1912.78,924.73z"/>
		</g>
	</g>
	<g>
		<g>
			<path style="fill:#4a5634;" d="M1261.929,1129.122c-0.4,26.525-17.352,51.083-42.929,59.79
				c-26.33,8.964-55.962,1.74-74.032-19.79c-17.435-20.774-19.05-50.604-4.733-73.46c14.063-22.45,42.35-34.303,68.346-29.158
				C1239.032,1072.53,1261.461,1098.098,1261.929,1129.122c0.349,23.12,36.313,23.188,35.963,0
				c-0.647-42.876-28.002-79.762-68.204-94.084c-38.315-13.65-84.608-1.673-110.904,29.526
				c-27.375,32.481-32.479,79.647-9.601,116.17c22.545,35.989,65.109,53.535,106.572,46.135
				c47.001-8.388,81.424-50.456,82.137-97.746C1298.241,1105.972,1262.279,1105.964,1261.929,1129.122z"/>
		</g>
	</g>
	<g>
		<g>
			<path style="fill:#4a5634;" d="M449.867,2707.561c-0.4,26.524-17.352,51.083-42.929,59.79c-26.33,8.963-55.962,1.74-74.032-19.79
				c-17.435-20.774-19.05-50.604-4.733-73.46c14.063-22.45,42.35-34.303,68.346-29.158
				C426.97,2650.969,449.399,2676.538,449.867,2707.561c0.349,23.12,36.313,23.188,35.963,0
				c-0.647-42.876-28.002-79.762-68.204-94.084c-38.315-13.65-84.608-1.674-110.904,29.526
				c-27.376,32.481-32.479,79.647-9.601,116.17c22.544,35.989,65.109,53.535,106.572,46.135
				c47.001-8.388,81.424-50.456,82.138-97.746C486.18,2684.411,450.217,2684.403,449.867,2707.561z"/>
		</g>
	</g>
	<g>
		<g>
			<path style="fill:#4a5634;" d="M1069.94,652.337c-0.4,26.525-17.352,51.083-42.929,59.79c-26.33,8.964-55.962,1.74-74.032-19.79
				c-17.435-20.774-19.05-50.605-4.733-73.46c14.063-22.45,42.35-34.303,68.346-29.158
				C1047.043,595.745,1069.472,621.314,1069.94,652.337c0.349,23.12,36.313,23.189,35.963,0
				c-0.647-42.876-28.002-79.763-68.204-94.084c-38.315-13.65-84.608-1.674-110.904,29.526
				c-27.375,32.481-32.479,79.647-9.601,116.17c22.544,35.989,65.109,53.535,106.572,46.135
				c47.001-8.388,81.424-50.456,82.138-97.746C1106.252,629.187,1070.29,629.178,1069.94,652.337z"/>
		</g>
	</g>
	<g>
		<g>
			<path style="fill:#4a5634;" d="M1767.421,2486.327c-0.4,26.525-17.352,51.083-42.929,59.79
				c-26.33,8.963-55.962,1.74-74.032-19.79c-17.435-20.774-19.05-50.604-4.733-73.46c14.063-22.45,42.35-34.303,68.346-29.158
				C1744.523,2429.735,1766.953,2455.304,1767.421,2486.327c0.349,23.12,36.313,23.188,35.963,0
				c-0.647-42.876-28.002-79.762-68.204-94.084c-38.316-13.65-84.608-1.674-110.904,29.526
				c-27.376,32.481-32.479,79.647-9.601,116.169c22.544,35.989,65.109,53.535,106.572,46.135
				c47.001-8.388,81.424-50.456,82.138-97.746C1803.733,2463.177,1767.77,2463.169,1767.421,2486.327z"/>
		</g>
	</g>
	<g>
		<g>
			<path style="fill:#4a5634;" d="M2071.719,327.23c-0.4,26.524-17.352,51.082-42.929,59.789c-26.33,8.964-55.962,1.74-74.032-19.79
				c-17.435-20.774-19.05-50.605-4.733-73.46c14.063-22.45,42.35-34.303,68.346-29.158
				C2048.822,270.638,2071.251,296.206,2071.719,327.23c0.349,23.12,36.313,23.189,35.963,0
				c-0.647-42.876-28.002-79.762-68.204-94.084c-38.315-13.65-84.608-1.673-110.904,29.526
				c-27.376,32.481-32.479,79.647-9.601,116.17c22.544,35.989,65.109,53.535,106.572,46.135
				c47.001-8.388,81.424-50.456,82.137-97.746C2108.031,304.08,2072.068,304.071,2071.719,327.23z"/>
		</g>
	</g>
	<g>
		<g>
			<path style="fill:#4a5634;" d="M1106.628,262.944c-0.4,26.524-17.352,51.082-42.929,59.79c-26.33,8.964-55.962,1.74-74.032-19.79
				c-17.435-20.774-19.05-50.605-4.733-73.46c14.063-22.45,42.35-34.303,68.346-29.158
				C1083.73,206.353,1106.16,231.921,1106.628,262.944c0.349,23.12,36.313,23.189,35.963,0
				c-0.647-42.876-28.002-79.762-68.204-94.084c-38.315-13.65-84.608-1.673-110.904,29.526
				c-27.376,32.481-32.479,79.647-9.601,116.17c22.544,35.989,65.109,53.535,106.572,46.135
				c47.001-8.388,81.424-50.456,82.137-97.746C1142.94,239.794,1106.977,239.786,1106.628,262.944z"/>
		</g>
	</g>
	<g>
		<g>
			<path style="fill:#4a5634;" d="M1409.659,1634.707c-0.4,26.525-17.352,51.083-42.929,59.79
				c-26.33,8.964-55.962,1.74-74.032-19.79c-17.435-20.774-19.05-50.604-4.733-73.46c14.063-22.45,42.35-34.303,68.346-29.158
				C1386.761,1578.115,1409.191,1603.683,1409.659,1634.707c0.349,23.12,36.313,23.188,35.963,0
				c-0.647-42.876-28.002-79.762-68.204-94.084c-38.315-13.65-84.608-1.673-110.904,29.526
				c-27.376,32.481-32.479,79.647-9.601,116.17c22.544,35.989,65.109,53.535,106.572,46.135
				c47.001-8.388,81.424-50.456,82.137-97.746C1445.971,1611.557,1410.008,1611.548,1409.659,1634.707z"/>
		</g>
	</g>
	<g>
		<g>
			<path style="fill:#4a5634;" d="M2039.475,1960.919c-0.401,26.524-17.352,51.082-42.929,59.789
				c-26.33,8.964-55.962,1.74-74.032-19.79c-17.435-20.774-19.05-50.605-4.733-73.46c14.063-22.45,42.35-34.303,68.346-29.158
				C2016.578,1904.328,2039.007,1929.896,2039.475,1960.919c0.349,23.12,36.313,23.188,35.963,0
				c-0.647-42.876-28.002-79.762-68.204-94.084c-38.315-13.65-84.608-1.673-110.904,29.526
				c-27.376,32.481-32.479,79.647-9.601,116.17c22.544,35.989,65.109,53.535,106.572,46.135
				c47.001-8.388,81.424-50.456,82.138-97.746C2075.787,1937.769,2039.824,1937.76,2039.475,1960.919z"/>
		</g>
	</g>
	<g>
		<g>
			<path style="fill:#4a5634;" d="M777.944,2019.419c-0.4,26.524-17.352,51.083-42.929,59.79c-26.33,8.963-55.962,1.74-74.032-19.79
				c-17.435-20.774-19.05-50.604-4.733-73.46c14.063-22.45,42.35-34.303,68.346-29.158
				C755.047,1962.827,777.476,1988.395,777.944,2019.419c0.349,23.12,36.313,23.188,35.963,0
				c-0.647-42.876-28.002-79.763-68.204-94.084c-38.315-13.65-84.608-1.673-110.904,29.526
				c-27.376,32.481-32.479,79.647-9.601,116.17c22.544,35.989,65.109,53.535,106.572,46.135
				c47.001-8.389,81.424-50.456,82.137-97.746C814.256,1996.268,778.294,1996.26,777.944,2019.419z"/>
		</g>
	</g>
	<g>
		<g>
			<path style="fill:#4a5634;" d="M380.182,667.814c-0.4,26.525-17.352,51.083-42.929,59.79c-26.33,8.963-55.962,1.74-74.032-19.79
				c-17.435-20.774-19.05-50.605-4.733-73.46c14.064-22.45,42.35-34.303,68.346-29.158
				C357.284,611.222,379.713,636.79,380.182,667.814c0.349,23.12,36.313,23.188,35.963,0c-0.647-42.876-28.002-79.763-68.204-94.084
				c-38.315-13.65-84.608-1.674-110.904,29.526c-27.376,32.481-32.479,79.647-9.601,116.169
				c22.544,35.989,65.109,53.535,106.572,46.135c47.001-8.388,81.424-50.456,82.137-97.746
				C416.494,644.663,380.531,644.655,380.182,667.814z"/>
		</g>
	</g>
	<g>
		<g>
			<path style="fill:#4a5634;" d="M200.262,1595.151c-0.4,26.524-17.352,51.082-42.929,59.79c-26.33,8.963-55.962,1.74-74.032-19.79
				c-17.435-20.774-19.05-50.605-4.733-73.46c14.063-22.45,42.35-34.303,68.346-29.158
				C177.365,1538.559,199.794,1564.128,200.262,1595.151c0.349,23.12,36.313,23.188,35.963,0
				c-0.647-42.876-28.002-79.762-68.204-94.084c-38.315-13.65-84.608-1.673-110.904,29.526
				c-27.376,32.481-32.479,79.647-9.601,116.17c22.544,35.989,65.109,53.535,106.572,46.135
				c47.001-8.388,81.424-50.456,82.137-97.746C236.574,1572.001,200.611,1571.993,200.262,1595.151z"/>
		</g>
	</g>
	<g>
		<g>
			<path style="fill:#4a5634;" d="M1174.871,2608.021c-0.4,26.524-17.352,51.083-42.929,59.79
				c-26.33,8.963-55.962,1.74-74.032-19.79c-17.435-20.774-19.05-50.605-4.733-73.46c14.063-22.45,42.35-34.303,68.346-29.158
				C1151.974,2551.43,1174.402,2576.998,1174.871,2608.021c0.349,23.12,36.313,23.188,35.963,0
				c-0.647-42.876-28.002-79.762-68.204-94.084c-38.315-13.65-84.608-1.673-110.904,29.526c-27.376,32.48-32.48,79.647-9.601,116.17
				c22.544,35.989,65.109,53.535,106.572,46.135c47.001-8.388,81.424-50.456,82.137-97.746
				C1211.183,2584.871,1175.22,2584.863,1174.871,2608.021z"/>
		</g>
	</g>
	<g>
		<g>
			<path style="fill:#202419;" d="M687.567,1365.798c1.158,13.31-7.26,25.301-19.077,28.503c-13.645,3.698-29.1-5.06-32.921-20.228
				c-6.444-39.787-12.888-79.575-19.332-119.362c-0.772-13.167,8.031-24.864,20.217-27.705c13.469-3.14,27.897,5.278,31.781,19.43
				C674.679,1286.224,681.123,1326.011,687.567,1365.798z"/>
		</g>
	</g>
	<g>
		<g>
			<path style="fill:#202419;" d="M1188.753,1468.724c1.158,13.31-7.26,25.301-19.077,28.503c-13.646,3.698-29.1-5.06-32.921-20.228
				c-6.444-39.787-12.888-79.574-19.333-119.362c-0.772-13.167,8.031-24.863,20.217-27.705c13.469-3.14,27.897,5.277,31.781,19.43
				C1175.865,1389.149,1182.309,1428.937,1188.753,1468.724z"/>
		</g>
	</g>
	<g>
		<g>
			<path style="fill:#202419;" d="M905.087,1453.878c-11.483,6.995-26.07,4.914-34.256-4.12
				c-9.454-10.431-8.487-28.051,3.477-38.239c32.987-23.552,65.973-47.103,98.96-70.655c11.527-6.589,26.021-4.035,34.048,5.488
				c8.872,10.525,7.751,27.083-3.269,36.871C971.06,1406.774,938.073,1430.326,905.087,1453.878z"/>
		</g>
	</g>
	<g>
		<g>
			<path style="fill:#202419;" d="M1354.834,1423.715c-11.483,6.995-26.07,4.914-34.257-4.12
				c-9.454-10.431-8.486-28.051,3.477-38.238c32.986-23.552,65.973-47.103,98.96-70.655c11.526-6.589,26.021-4.035,34.047,5.488
				c8.872,10.525,7.751,27.083-3.268,36.871C1420.808,1376.612,1387.821,1400.163,1354.834,1423.715z"/>
		</g>
	</g>
	<g>
		<g>
			<path style="fill:#202419;" d="M1059.163,956.375c-5.164,12.34-18.211,19.133-30.186,16.574
				c-13.829-2.955-23.469-17.79-19.804-32.996c12.789-38.251,25.577-76.502,38.365-114.753
				c5.439-12.037,18.692-18.393,30.826-15.345c13.412,3.369,22.3,17.433,19.164,31.767
				C1084.74,879.873,1071.951,918.124,1059.163,956.375z"/>
		</g>
	</g>
	<g>
		<g>
			<path style="fill:#202419;" d="M123.256,243.373c-5.164,12.34-18.21,19.133-30.186,16.574
				c-13.828-2.955-23.468-17.79-19.804-32.995c12.788-38.251,25.577-76.502,38.365-114.753
				c5.439-12.037,18.692-18.393,30.826-15.345c13.412,3.369,22.3,17.433,19.164,31.767
				C148.833,166.871,136.044,205.122,123.256,243.373z"/>
		</g>
	</g>
	<g>
		<g>
			<path style="fill:#202419;" d="M789.425,263.629c-5.164,12.34-18.211,19.133-30.186,16.574
				c-13.829-2.955-23.468-17.79-19.804-32.996c12.788-38.251,25.576-76.502,38.365-114.753
				c5.439-12.037,18.692-18.393,30.826-15.345c13.413,3.369,22.3,17.433,19.164,31.767
				C815.002,187.127,802.214,225.378,789.425,263.629z"/>
		</g>
	</g>
	<g>
		<g>
			<path style="fill:#202419;" d="M2236.198,996.886c-5.164,12.34-18.21,19.133-30.186,16.574
				c-13.828-2.955-23.468-17.79-19.804-32.996c12.788-38.251,25.577-76.502,38.365-114.753
				c5.439-12.037,18.692-18.393,30.826-15.345c13.413,3.369,22.3,17.433,19.164,31.767
				C2261.776,920.385,2248.987,958.636,2236.198,996.886z"/>
		</g>
	</g>
	<g>
		<g>
			<path style="fill:#202419;" d="M122.799,1989.879c-5.164,12.34-18.21,19.133-30.186,16.573
				c-13.829-2.954-23.468-17.789-19.804-32.995c12.789-38.251,25.577-76.502,38.365-114.753
				c5.439-12.037,18.692-18.393,30.826-15.344c13.413,3.369,22.3,17.433,19.164,31.766
				C148.376,1913.377,135.587,1951.628,122.799,1989.879z"/>
		</g>
	</g>
	<g>
		<g>
			<path style="fill:#202419;" d="M140.536,2784.27c-5.164,12.34-18.21,19.133-30.186,16.573
				c-13.829-2.955-23.468-17.79-19.804-32.995c12.789-38.251,25.577-76.502,38.365-114.753
				c5.439-12.037,18.691-18.393,30.826-15.345c13.413,3.369,22.3,17.433,19.164,31.766
				C166.113,2707.768,153.325,2746.019,140.536,2784.27z"/>
		</g>
	</g>
	<g>
		<g>
			<path style="fill:#202419;" d="M1106.734,1654.269c11.374,7.167,15.878,21.076,11.273,32.328
				c-5.318,12.994-21.72,19.852-36.2,13.656c-35.811-19.073-71.621-38.146-107.432-57.219c-11.026-7.383-15.06-21.418-9.942-32.742
				c5.657-12.516,21.164-18.773,34.868-13.243C1035.113,1616.123,1070.923,1635.195,1106.734,1654.269z"/>
		</g>
	</g>
	<g>
		<g>
			<path style="fill:#202419;" d="M137.872,766.805c2.218,13.177-5.214,25.791-16.738,29.912
				c-13.307,4.758-29.413-2.758-34.435-17.578c-9.605-39.156-19.21-78.312-28.814-117.468c-1.823-13.065,6.018-25.416,17.938-29.206
				c13.175-4.188,28.231,3.07,33.235,16.872C118.662,688.494,128.267,727.649,137.872,766.805z"/>
		</g>
	</g>
	<g>
		<g>
			<path style="fill:#202419;" d="M2034.138,1304.446c8.346,10.49,7.961,25.093-0.136,34.205
				c-9.35,10.523-27.117,11.624-38.719,1.033c-27.442-29.731-54.883-59.461-82.325-89.192c-7.945-10.58-7.075-25.147,1.531-34.159
				c9.512-9.96,26.233-10.787,37.324-1.079C1979.255,1244.985,2006.697,1274.716,2034.138,1304.446z"/>
		</g>
	</g>
	<g>
		<g>
			<path style="fill:#202419;" d="M2181.877,2201.981c1.158,13.31-7.26,25.301-19.077,28.503
				c-13.646,3.698-29.1-5.061-32.921-20.229c-6.444-39.787-12.888-79.574-19.332-119.361c-0.773-13.167,8.031-24.864,20.216-27.705
				c13.469-3.14,27.897,5.278,31.781,19.43C2168.989,2122.407,2175.433,2162.194,2181.877,2201.981z"/>
		</g>
	</g>
	<g>
		<g>
			<path style="fill:#202419;" d="M2225.917,2646.046c8.631,10.261,8.647,24.869,0.803,34.196
				c-9.058,10.771-26.788,12.351-38.676,2.077c-28.248-28.979-56.496-57.958-84.744-86.937c-8.232-10.361-7.763-24.947,0.592-34.188
				c9.234-10.214,25.927-11.491,37.281-2.086C2169.421,2588.089,2197.669,2617.068,2225.917,2646.046z"/>
		</g>
	</g>
	<g>
		<g>
			<path style="fill:#202419;" d="M1773.184,2064.242c1.158,13.31-7.26,25.301-19.076,28.503c-13.646,3.698-29.1-5.06-32.921-20.228
				c-6.444-39.787-12.888-79.574-19.332-119.362c-0.772-13.167,8.031-24.864,20.217-27.705c13.469-3.141,27.897,5.277,31.781,19.43
				C1760.296,1984.668,1766.74,2024.455,1773.184,2064.242z"/>
		</g>
	</g>
	<g>
		<g>
			<path style="fill:#202419;" d="M2114.818,2956.853c-11.483,6.995-26.069,4.914-34.256-4.12
				c-9.454-10.432-8.487-28.051,3.477-38.239c32.987-23.551,65.973-47.103,98.96-70.655c11.526-6.589,26.021-4.035,34.048,5.487
				c8.872,10.525,7.751,27.083-3.268,36.871C2180.792,2909.75,2147.805,2933.301,2114.818,2956.853z"/>
		</g>
	</g>
	<g>
		<g>
			<path style="fill:#202419;" d="M1533.093,1777.309c-12.92-3.804-21.095-15.959-19.776-28.031
				c1.523-13.941,15.403-24.99,31.041-22.963c39.712,8.62,79.423,17.24,119.135,25.86c12.644,4.108,20.402,16.51,18.609,28.791
				c-1.982,13.574-15.166,23.801-29.875,22.204C1612.517,1794.55,1572.805,1785.929,1533.093,1777.309z"/>
		</g>
	</g>
	<g>
		<g>
			<path style="fill:#202419;" d="M707.534,1797.564c-12.919-3.804-21.095-15.958-19.776-28.031
				c1.523-13.941,15.403-24.99,31.042-22.963c39.712,8.62,79.423,17.241,119.135,25.861c12.644,4.108,20.402,16.51,18.609,28.791
				c-1.982,13.573-15.167,23.801-29.875,22.203C786.957,1814.805,747.245,1806.185,707.534,1797.564z"/>
		</g>
	</g>
	<g>
		<g>
			<path style="fill:#202419;" d="M427.842,1523.444c-12.92-3.804-21.095-15.959-19.776-28.031
				c1.523-13.941,15.403-24.99,31.041-22.963c39.712,8.62,79.423,17.241,119.135,25.861c12.644,4.108,20.402,16.51,18.609,28.791
				c-1.982,13.573-15.166,23.801-29.875,22.203C507.265,1540.685,467.554,1532.065,427.842,1523.444z"/>
		</g>
	</g>
	<g>
		<g>
			<path style="fill:#202419;" d="M1737.666,2827.53c-8.019-10.738-7.183-25.322,1.192-34.185
				c9.671-10.235,27.464-10.796,38.733,0.142c26.511,30.549,53.022,61.098,79.533,91.647c7.615,10.816,6.295,25.351-2.585,34.097
				c-9.815,9.667-26.553,9.986-37.339-0.054C1790.687,2888.628,1764.176,2858.079,1737.666,2827.53z"/>
		</g>
	</g>
	<g>
		<g>
			<path style="fill:#202419;" d="M2058.436,569.482c-12.92-3.805-21.095-15.958-19.776-28.031
				c1.523-13.941,15.403-24.99,31.041-22.963c39.711,8.621,79.423,17.241,119.135,25.861c12.644,4.107,20.403,16.51,18.609,28.79
				c-1.982,13.574-15.166,23.801-29.875,22.204C2137.859,586.723,2098.147,578.103,2058.436,569.482z"/>
		</g>
	</g>
	<g>
		<g>
			<path style="fill:#202419;" d="M481.82,834.965c-12.92-3.805-21.095-15.959-19.776-28.031
				c1.523-13.941,15.403-24.99,31.041-22.963c39.712,8.62,79.423,17.24,119.135,25.86c12.644,4.108,20.402,16.51,18.609,28.791
				c-1.982,13.574-15.166,23.801-29.875,22.204C561.243,852.205,521.532,843.585,481.82,834.965z"/>
		</g>
	</g>
	<g>
		<g>
			<path style="fill:#202419;" d="M1375.498,674.309c-12.92-3.805-21.095-15.959-19.776-28.031
				c1.523-13.941,15.403-24.99,31.041-22.963c39.711,8.62,79.423,17.24,119.135,25.86c12.644,4.108,20.402,16.51,18.609,28.791
				c-1.982,13.574-15.166,23.801-29.875,22.204C1454.921,691.549,1415.21,682.929,1375.498,674.309z"/>
		</g>
	</g>
	<g>
		<g>
			<path style="fill:#202419;" d="M1619.072,1535.689c-5.164,12.34-18.211,19.132-30.186,16.574
				c-13.829-2.955-23.468-17.79-19.804-32.996c12.788-38.25,25.577-76.502,38.365-114.752c5.439-12.037,18.692-18.393,30.826-15.345
				c13.413,3.369,22.3,17.433,19.164,31.767C1644.649,1459.187,1631.861,1497.438,1619.072,1535.689z"/>
		</g>
	</g>
	<g>
		<g>
			<path style="fill:#202419;" d="M1913.332,2613.232c-5.164,12.34-18.211,19.133-30.186,16.574
				c-13.829-2.955-23.468-17.79-19.804-32.996c12.788-38.251,25.577-76.502,38.365-114.753
				c5.439-12.037,18.692-18.393,30.827-15.344c13.412,3.369,22.299,17.433,19.163,31.767
				C1938.908,2536.73,1926.12,2574.981,1913.332,2613.232z"/>
		</g>
	</g>
	<g>
		<g>
			<path style="fill:#202419;" d="M1666.643,2233.583c11.374,7.167,15.878,21.076,11.273,32.329
				c-5.317,12.994-21.719,19.852-36.2,13.656c-35.81-19.073-71.621-38.146-107.432-57.219c-11.025-7.383-15.06-21.418-9.942-32.742
				c5.657-12.517,21.164-18.773,34.868-13.243C1595.022,2195.437,1630.832,2214.51,1666.643,2233.583z"/>
		</g>
	</g>
	<g>
		<g>
			<path style="fill:#202419;" d="M1474.558,2602.237c11.374,7.167,15.878,21.076,11.273,32.329
				c-5.317,12.994-21.72,19.852-36.2,13.656c-35.811-19.073-71.621-38.146-107.432-57.219c-11.026-7.384-15.06-21.418-9.942-32.742
				c5.657-12.516,21.164-18.773,34.868-13.243C1402.936,2564.091,1438.747,2583.164,1474.558,2602.237z"/>
		</g>
	</g>
	<g>
		<g>
			<path style="fill:#202419;" d="M1907.443,1754.124c8.346,10.49,7.961,25.093-0.136,34.205
				c-9.35,10.523-27.117,11.624-38.719,1.033c-27.442-29.73-54.883-59.461-82.325-89.192c-7.945-10.58-7.074-25.147,1.531-34.159
				c9.512-9.96,26.233-10.787,37.324-1.079C1852.56,1694.662,1880.002,1724.393,1907.443,1754.124z"/>
		</g>
	</g>
	<g>
		<g>
			<path style="fill:#202419;" d="M2261.979,1914.505c8.347,10.49,7.961,25.092-0.136,34.205
				c-9.35,10.523-27.117,11.624-38.719,1.033c-27.442-29.731-54.883-59.461-82.325-89.192c-7.945-10.58-7.074-25.148,1.531-34.159
				c9.512-9.961,26.233-10.787,37.324-1.079C2207.096,1855.043,2234.537,1884.774,2261.979,1914.505z"/>
		</g>
	</g>
	<g>
		<g>
			<path style="fill:#202419;" d="M1318.925,1899.965c8.346,10.49,7.961,25.092-0.136,34.205
				c-9.35,10.522-27.118,11.624-38.719,1.033c-27.442-29.731-54.883-59.461-82.325-89.192c-7.945-10.58-7.074-25.147,1.531-34.159
				c9.512-9.96,26.233-10.786,37.324-1.078C1264.042,1840.503,1291.484,1870.234,1318.925,1899.965z"/>
		</g>
	</g>
	<g>
		<g>
			<path style="fill:#202419;" d="M1028.754,2102.522c8.346,10.49,7.961,25.093-0.136,34.205
				c-9.35,10.522-27.118,11.624-38.719,1.033c-27.442-29.731-54.883-59.462-82.325-89.192c-7.945-10.58-7.074-25.147,1.531-34.159
				c9.511-9.961,26.233-10.787,37.324-1.079C973.87,2043.061,1001.312,2072.792,1028.754,2102.522z"/>
		</g>
	</g>
	<g>
		<g>
			<path style="fill:#202419;" d="M2215.224,2368.927c12.516,4.955,19.542,17.796,17.118,29.7
				c-2.798,13.746-17.634,23.496-33.022,20.065c-38.755-12.169-77.509-24.338-116.264-36.507
				c-12.214-5.231-18.801-18.282-15.887-30.35c3.221-13.339,17.29-22.333,31.791-19.415
				C2137.715,2344.59,2176.469,2356.758,2215.224,2368.927z"/>
		</g>
	</g>
	<g>
		<g>
			<path style="fill:#202419;" d="M1334.95,364.334c1.158,13.31-7.26,25.301-19.077,28.503c-13.645,3.698-29.099-5.06-32.921-20.228
				c-6.444-39.787-12.888-79.574-19.332-119.361c-0.772-13.167,8.031-24.864,20.217-27.705c13.469-3.141,27.896,5.277,31.781,19.43
				C1322.062,284.759,1328.506,324.547,1334.95,364.334z"/>
		</g>
	</g>
	<g>
		<g>
			<path style="fill:#202419;" d="M2107.048,138.658c-7.568-11.113-6.231-25.786,2.375-34.421c9.938-9.971,27.584-9.9,38.366,1.531
				c25.196,31.748,50.392,63.497,75.588,95.245c7.166,11.177,5.35,25.783-3.752,34.283c-10.061,9.395-26.654,9.116-36.989-1.392
				C2157.44,202.154,2132.244,170.406,2107.048,138.658z"/>
		</g>
	</g>
	<g>
		<g>
			<path style="fill:#202419;" d="M2172.035,1271.576c-11.482,6.995-26.069,4.914-34.256-4.12
				c-9.454-10.432-8.486-28.051,3.477-38.239c32.987-23.552,65.973-47.104,98.96-70.655c11.527-6.589,26.021-4.035,34.048,5.487
				c8.872,10.525,7.751,27.083-3.268,36.871C2238.008,1224.473,2205.022,1248.024,2172.035,1271.576z"/>
		</g>
	</g>
	<g>
		<g>
			<path style="fill:#202419;" d="M1705.378,1267.293c-11.483,6.995-26.069,4.914-34.256-4.12
				c-9.454-10.431-8.486-28.051,3.477-38.239c32.987-23.552,65.973-47.103,98.96-70.655c11.526-6.589,26.021-4.035,34.048,5.488
				c8.872,10.525,7.751,27.083-3.268,36.871C1771.351,1220.19,1738.365,1243.741,1705.378,1267.293z"/>
		</g>
	</g>
	<g>
		<g>
			<path style="fill:#202419;" d="M1165.612,115.052c-13.192-2.736-22.35-14.181-22.039-26.32
				c0.359-14.018,13.273-26.164,29.027-25.421c40.293,5.346,80.586,10.693,120.88,16.039c12.942,3.061,21.706,14.786,20.94,27.172
				c-0.847,13.69-13.136,24.959-27.927,24.569C1246.198,125.744,1205.905,120.398,1165.612,115.052z"/>
		</g>
	</g>
	<g>
		<g>
			<path style="fill:#202419;" d="M491.267,131.272c-13.192-2.736-22.35-14.181-22.039-26.32
				c0.359-14.018,13.272-26.164,29.026-25.421c40.293,5.346,80.587,10.693,120.88,16.039c12.943,3.06,21.706,14.787,20.94,27.172
				c-0.847,13.689-13.136,24.959-27.927,24.569C571.853,141.964,531.56,136.618,491.267,131.272z"/>
		</g>
	</g>
	<g>
		<g>
			<path style="fill:#202419;" d="M808.774,442.003c-12.92-3.804-21.095-15.958-19.776-28.031
				c1.523-13.941,15.403-24.99,31.042-22.963c39.711,8.621,79.423,17.241,119.135,25.861c12.644,4.107,20.403,16.51,18.609,28.79
				c-1.982,13.574-15.167,23.801-29.875,22.204C888.198,459.244,848.486,450.624,808.774,442.003z"/>
		</g>
	</g>
	<g>
		<g>
			<path style="fill:#202419;" d="M1549.595,206.851c-5.164,12.34-18.211,19.133-30.186,16.574
				c-13.829-2.955-23.468-17.79-19.804-32.996c12.788-38.251,25.577-76.502,38.365-114.753
				c5.439-12.037,18.692-18.393,30.827-15.345c13.412,3.369,22.299,17.433,19.163,31.767
				C1575.171,130.349,1562.383,168.6,1549.595,206.851z"/>
		</g>
	</g>
	<g>
		<g>
			<path style="fill:#202419;" d="M159.955,509.365c-10.579,8.278-25.311,7.902-34.507-0.12
				c-10.62-9.263-11.738-26.874-1.059-38.379c29.981-27.214,59.963-54.429,89.944-81.643c10.67-7.88,25.366-7.024,34.461,1.502
				c10.053,9.424,10.894,25.998,1.105,36.997C219.918,454.936,189.936,482.15,159.955,509.365z"/>
		</g>
	</g>
	<g>
		<g>
			<path style="fill:#202419;" d="M475.953,1166.395c-5.164,12.34-18.21,19.133-30.186,16.574
				c-13.829-2.955-23.468-17.79-19.804-32.996c12.789-38.251,25.577-76.502,38.365-114.753
				c5.439-12.037,18.692-18.393,30.826-15.345c13.412,3.369,22.3,17.433,19.164,31.766
				C501.53,1089.893,488.741,1128.144,475.953,1166.395z"/>
		</g>
	</g>
	<g>
		<g>
			<path style="fill:#202419;" d="M1610.6,988.502c1.655,13.341-6.258,25.635-17.884,29.196
				c-13.424,4.112-29.118-4.24-33.492-19.371c-7.913-39.794-15.827-79.588-23.74-119.382c-1.267-13.209,7.041-25.218,19.047-28.427
				c13.27-3.547,27.931,4.493,32.328,18.602C1594.773,908.914,1602.686,948.708,1610.6,988.502z"/>
		</g>
	</g>
	<g>
		<g>
			<path style="fill:#202419;" d="M1869.729,159.545c8.346,10.489,7.961,25.093-0.136,34.205
				c-9.35,10.523-27.118,11.624-38.719,1.033c-27.441-29.731-54.883-59.461-82.325-89.192c-7.945-10.58-7.075-25.147,1.531-34.159
				c9.511-9.96,26.233-10.787,37.324-1.079C1814.845,100.083,1842.287,129.814,1869.729,159.545z"/>
		</g>
	</g>
	<g>
		<g>
			<path style="fill:#202419;" d="M1248.515,548.455c8.347,10.49,7.961,25.092-0.136,34.205
				c-9.35,10.523-27.117,11.623-38.719,1.033c-27.442-29.731-54.883-59.461-82.325-89.192c-7.945-10.579-7.075-25.147,1.531-34.159
				c9.512-9.961,26.233-10.787,37.324-1.079C1193.632,488.993,1221.074,518.724,1248.515,548.455z"/>
		</g>
	</g>
	<g>
		<g>
			<path style="fill:#202419;" d="M880.692,827.984c8.346,10.49,7.961,25.092-0.137,34.205c-9.35,10.523-27.117,11.624-38.719,1.033
				c-27.441-29.731-54.883-59.461-82.325-89.192c-7.945-10.58-7.075-25.148,1.531-34.159c9.512-9.961,26.233-10.786,37.324-1.079
				C825.808,768.523,853.25,798.253,880.692,827.984z"/>
		</g>
	</g>
	<g>
		<g>
			<path style="fill:#202419;" d="M173.653,1314.121c8.346,10.489,7.961,25.092-0.136,34.205
				c-9.35,10.523-27.117,11.624-38.719,1.033c-27.441-29.73-54.883-59.461-82.324-89.192c-7.945-10.58-7.075-25.147,1.531-34.159
				c9.512-9.96,26.233-10.787,37.324-1.079C118.77,1254.66,146.211,1284.391,173.653,1314.121z"/>
		</g>
	</g>
	<g>
		<g>
			<path style="fill:#202419;" d="M199.324,2496.919c12.92-3.804,21.095-15.958,19.776-28.031
				c-1.524-13.941-15.403-24.99-31.041-22.963c-39.712,8.62-79.423,17.24-119.135,25.861c-12.644,4.107-20.403,16.51-18.609,28.791
				c1.982,13.574,15.166,23.801,29.875,22.203C119.901,2514.16,159.612,2505.539,199.324,2496.919z"/>
		</g>
	</g>
	<g>
		<g>
			<path style="fill:#202419;" d="M975.946,2458.776c-1.158,13.31,7.26,25.301,19.077,28.503c13.646,3.698,29.1-5.06,32.921-20.228
				c6.444-39.787,12.888-79.574,19.332-119.362c0.772-13.167-8.031-24.864-20.217-27.705c-13.469-3.141-27.897,5.278-31.781,19.43
				C988.834,2379.202,982.39,2418.989,975.946,2458.776z"/>
		</g>
	</g>
	<g>
		<g>
			<path style="fill:#202419;" d="M588.321,2724.033c-12.974,3.192-21.613,15.023-20.839,27.242
				c0.895,14.11,14.165,25.918,29.755,24.65c39.742-6.716,79.484-13.432,119.227-20.148c12.714-3.51,20.951-15.612,19.716-28.063
				c-1.366-13.762-13.982-24.709-28.632-23.828C667.805,2710.601,628.063,2717.317,588.321,2724.033z"/>
		</g>
	</g>
	<g>
		<g>
			<path style="fill:#202419;" d="M1221.162,2843.635c-1.158,13.31,7.26,25.301,19.077,28.503
				c13.645,3.698,29.099-5.061,32.921-20.228c6.444-39.787,12.888-79.574,19.332-119.362c0.772-13.167-8.031-24.863-20.217-27.705
				c-13.469-3.141-27.896,5.278-31.781,19.43C1234.05,2764.061,1227.606,2803.848,1221.162,2843.635z"/>
		</g>
	</g>
	<g>
		<g>
			<path style="fill:#202419;" d="M921.482,2789.359c9.382,9.631,24.028,11.244,34.204,4.531
				c11.751-7.752,15.197-25.059,6.144-37.902c-26.092-31.017-52.183-62.033-78.275-93.05c-9.525-9.249-24.2-10.38-34.343-3.154
				c-11.211,7.987-14.244,24.303-6.006,36.524C869.299,2727.326,895.39,2758.343,921.482,2789.359z"/>
		</g>
	</g>
	<g>
		<g>
			<path style="fill:#202419;" d="M168.402,2285.935c11.483,6.994,26.07,4.914,34.257-4.12c9.454-10.432,8.486-28.051-3.477-38.239
				c-32.987-23.551-65.973-47.103-98.96-70.655c-11.526-6.589-26.021-4.034-34.048,5.488c-8.872,10.525-7.751,27.083,3.268,36.871
				C102.429,2238.832,135.416,2262.384,168.402,2285.935z"/>
		</g>
	</g>
	<g>
		<g>
			<path style="fill:#202419;" d="M1089.342,2917.254c12.92-3.805,21.095-15.958,19.776-28.031
				c-1.523-13.941-15.403-24.99-31.042-22.963c-39.712,8.62-79.423,17.24-119.135,25.861c-12.644,4.107-20.402,16.51-18.609,28.79
				c1.982,13.574,15.167,23.801,29.875,22.204C1009.919,2934.494,1049.63,2925.874,1089.342,2917.254z"/>
		</g>
	</g>
	<g>
		<g>
			<path style="fill:#202419;" d="M517.172,2941.561c12.92-3.804,21.095-15.958,19.776-28.031
				c-1.523-13.941-15.403-24.99-31.042-22.963c-39.711,8.62-79.423,17.241-119.134,25.861c-12.644,4.107-20.403,16.51-18.609,28.791
				c1.982,13.573,15.167,23.801,29.875,22.203C437.749,2958.801,477.461,2950.181,517.172,2941.561z"/>
		</g>
	</g>
	<g>
		<g>
			<path style="fill:#202419;" d="M441.168,2253.987c-8.346,10.49-7.961,25.093,0.137,34.205
				c9.35,10.522,27.117,11.624,38.718,1.033c27.442-29.73,54.883-59.461,82.325-89.192c7.945-10.58,7.075-25.147-1.531-34.159
				c-9.512-9.961-26.232-10.787-37.324-1.079C496.051,2194.526,468.609,2224.257,441.168,2253.987z"/>
		</g>
	</g>
</g>
</svg>
