<?xml version="1.0" encoding="utf-8"?>
<!-- Generator: Adobe Illustrator 27.5.0, SVG Export Plug-In . SVG Version: 6.00 Build 0)  -->
<svg version="1.1" xmlns="http://www.w3.org/2000/svg" xmlns:xlink="http://www.w3.org/1999/xlink" x="0px" y="0px"
	 viewBox="0 0 366.449 500" style="enable-background:new 0 0 366.449 500;" xml:space="preserve">
<g id="_x31_6">
	<g>
		<g>
			<g>
				<rect x="283.343" y="416.932" style="fill:#202419;" width="66.771" height="66.771"/>
				<path style="fill:#c2cbaf;" d="M283.343,416.932h66.77c0,18.44-14.947,33.388-33.386,33.388
					C298.29,450.319,283.343,435.372,283.343,416.932z"/>
			</g>
			<g>
				<rect x="216.573" y="416.932" style="fill:#feffda;" width="66.77" height="66.775"/>
				<path style="fill:#c2cbaf;" d="M216.573,483.707v-66.775c18.439,0,33.387,14.947,33.387,33.388
					C249.96,468.759,235.013,483.707,216.573,483.707z"/>
			</g>
			<g>
				<rect x="149.803" y="416.932" style="fill:#c2cbaf;" width="66.771" height="66.771"/>
				<path style="fill:#feffda;" d="M149.803,416.932h66.77c0,18.44-14.948,33.388-33.385,33.388
					C164.751,450.319,149.803,435.372,149.803,416.932z"/>
			</g>
			<g>
				<rect x="83.033" y="416.932" style="fill:#feffda;" width="66.77" height="66.771"/>
				<path style="fill:#4a5634;" d="M149.803,416.932v66.77c-18.438,0-33.385-14.947-33.385-33.383
					C116.418,431.879,131.365,416.932,149.803,416.932z"/>
			</g>
			<g>
				<rect x="16.263" y="416.932" style="fill:#4a5634;" width="66.77" height="66.775"/>
				<path style="fill:#feffda;" d="M16.263,416.932h66.77c0,18.44-14.947,33.388-33.385,33.388
					C31.21,450.319,16.263,435.372,16.263,416.932z"/>
			</g>
			<g>
				<rect x="283.35" y="350.162" style="fill:#feffda;" width="66.772" height="66.77"/>
				<path style="fill:#c2cbaf;" d="M283.35,350.162h66.772c0,18.436-14.947,33.383-33.388,33.383
					C298.297,383.545,283.35,368.598,283.35,350.162z"/>
			</g>
			<g>
				<rect x="216.577" y="350.162" style="fill:#feffda;" width="66.773" height="66.77"/>
				<path style="fill:#4a5634;" d="M216.577,350.162h66.773c0,18.436-14.949,33.383-33.385,33.383
					C231.525,383.545,216.577,368.598,216.577,350.162z"/>
			</g>
			<g>
				<rect x="149.808" y="350.162" style="fill:#4a5634;" width="66.769" height="66.77"/>
				<path style="fill:#202419;" d="M149.808,416.932v-66.77c18.437,0,33.385,14.947,33.385,33.383
					C183.192,401.984,168.245,416.932,149.808,416.932z"/>
			</g>
			<g>
				<rect x="83.037" y="350.162" style="fill:#feffda;" width="66.771" height="66.77"/>
				<path style="fill:#4a5634;" d="M149.808,350.162v66.77c-18.436,0-33.383-14.947-33.383-33.387
					C116.425,365.109,131.372,350.162,149.808,350.162z"/>
			</g>
			<g>
				<rect x="16.267" y="350.162" style="fill:#4a5634;" width="66.77" height="66.77"/>
				<path style="fill:#feffda;" d="M83.037,416.932h-66.77c0-18.439,14.948-33.387,33.388-33.387
					C68.09,383.545,83.037,398.492,83.037,416.932z"/>
			</g>
			<g>
				<rect x="283.339" y="283.388" style="fill:#4a5634;" width="66.77" height="66.77"/>
				<path style="fill:#feffda;" d="M283.339,350.157v-66.77c18.438,0,33.385,14.947,33.385,33.387
					C316.724,335.21,301.776,350.157,283.339,350.157z"/>
			</g>
			<g>
				<rect x="216.568" y="283.388" style="fill:#202419;" width="66.771" height="66.77"/>
				<path style="fill:#feffda;" d="M216.568,350.157v-66.77c18.438,0,33.385,14.947,33.385,33.387
					C249.953,335.21,235.006,350.157,216.568,350.157z"/>
			</g>
			<g>
				<rect x="149.798" y="283.388" style="fill:#202419;" width="66.77" height="66.77"/>
				<path style="fill:#feffda;" d="M216.568,350.157h-66.77c0-18.435,14.947-33.383,33.385-33.383
					C201.621,316.774,216.568,331.722,216.568,350.157z"/>
			</g>
			<g>
				<rect x="83.028" y="283.388" style="fill:#feffda;" width="66.77" height="66.77"/>
				<path style="fill:#202419;" d="M83.028,350.157v-66.77c18.44,0,33.387,14.947,33.387,33.387
					C116.416,335.21,101.468,350.157,83.028,350.157z"/>
			</g>
			<g>
				<rect x="16.258" y="283.388" style="fill:#feffda;" width="66.77" height="66.77"/>
				<path style="fill:#4a5634;" d="M83.028,283.388v66.77c-18.438,0-33.385-14.947-33.385-33.383
					C49.643,298.335,64.591,283.388,83.028,283.388z"/>
			</g>
			<g>
				<rect x="283.343" y="216.616" style="fill:#feffda;" width="66.771" height="66.771"/>
				<path style="fill:#202419;" d="M350.113,216.616v66.771c-18.438,0-33.386-14.948-33.386-33.389
					C316.728,231.564,331.676,216.616,350.113,216.616z"/>
			</g>
			<g>
				<rect x="216.573" y="216.616" style="fill:#feffda;" width="66.77" height="66.771"/>
				<path style="fill:#202419;" d="M216.573,283.388v-66.771c18.438,0,33.385,14.947,33.385,33.383
					C249.958,268.44,235.011,283.388,216.573,283.388z"/>
			</g>
			<g>
				<rect x="149.803" y="216.616" style="fill:#feffda;" width="66.771" height="66.771"/>
				<path style="fill:#4a5634;" d="M149.803,283.388v-66.771c18.438,0,33.385,14.947,33.385,33.383
					C183.188,268.44,168.24,283.388,149.803,283.388z"/>
			</g>
			<g>
				<rect x="83.033" y="216.616" style="fill:#feffda;" width="66.77" height="66.771"/>
				<path style="fill:#4a5634;" d="M83.033,283.388v-66.771c18.438,0,33.385,14.947,33.385,33.383
					C116.418,268.44,101.47,283.388,83.033,283.388z"/>
			</g>
			<g>
				<rect x="16.263" y="216.616" style="fill:#4a5634;" width="66.77" height="66.771"/>
				<path style="fill:#202419;" d="M16.263,283.388v-66.771c18.437,0,33.385,14.947,33.385,33.383
					C49.648,268.44,34.7,283.388,16.263,283.388z"/>
			</g>
			<g>
				<rect x="283.352" y="149.841" style="fill:#feffda;" width="66.77" height="66.77"/>
				<path style="fill:#4a5634;" d="M283.352,149.841h66.77c0,18.44-14.947,33.388-33.385,33.388S283.352,168.281,283.352,149.841z"
					/>
			</g>
			<g>
				<rect x="216.582" y="149.841" style="fill:#4a5634;" width="66.77" height="66.77"/>
				<path style="fill:#feffda;" d="M216.582,216.611v-66.77c18.439,0,33.388,14.948,33.388,33.388
					C249.97,201.664,235.021,216.611,216.582,216.611z"/>
			</g>
			<g>
				<rect x="149.812" y="149.841" style="fill:#feffda;" width="66.77" height="66.77"/>
				<path style="fill:#c2cbaf;" d="M149.812,149.841h66.77c0,18.44-14.947,33.388-33.385,33.388
					C164.759,183.229,149.812,168.281,149.812,149.841z"/>
			</g>
			<g>
				<rect x="83.04" y="149.841" style="fill:#feffda;" width="66.772" height="66.77"/>
				<path style="fill:#4a5634;" d="M83.04,149.841h66.772c0,18.44-14.947,33.388-33.387,33.388
					C97.987,183.229,83.04,168.281,83.04,149.841z"/>
			</g>
			<g>
				<rect x="16.267" y="149.841" style="fill:#4a5634;" width="66.772" height="66.77"/>
				<path style="fill:#202419;" d="M83.04,149.841v66.77c-18.438,0-33.385-14.947-33.385-33.382
					C49.655,164.789,64.602,149.841,83.04,149.841z"/>
			</g>
			<g>
				<rect x="283.356" y="83.071" style="fill:#4a5634;" width="66.772" height="66.77"/>
				<path style="fill:#202419;" d="M350.129,149.841h-66.773c0-18.435,14.947-33.385,33.388-33.385
					C335.182,116.456,350.129,131.406,350.129,149.841z"/>
			</g>
			<g>
				<rect x="216.587" y="83.071" style="fill:#c2cbaf;" width="66.77" height="66.77"/>
				<path style="fill:#feffda;" d="M216.587,149.841v-66.77c18.438,0,33.385,14.948,33.385,33.388
					C249.972,134.894,235.024,149.841,216.587,149.841z"/>
			</g>
			<g>
				<rect x="149.816" y="83.071" style="fill:#feffda;" width="66.771" height="66.77"/>
				<path style="fill:#4a5634;" d="M149.816,83.071h66.77c0,18.44-14.948,33.388-33.385,33.388
					C164.764,116.459,149.816,101.511,149.816,83.071z"/>
			</g>
			<g>
				<rect x="83.046" y="83.071" style="fill:#c2cbaf;" width="66.77" height="66.77"/>
				<path style="fill:#feffda;" d="M83.046,149.841v-66.77c18.438,0,33.385,14.948,33.385,33.385S101.484,149.841,83.046,149.841z"
					/>
			</g>
			<g>
				<rect x="16.274" y="83.071" style="fill:#feffda;" width="66.772" height="66.77"/>
				<path style="fill:#4a5634;" d="M83.046,83.071v66.77c-18.44,0-33.387-14.947-33.387-33.385S64.606,83.071,83.046,83.071z"/>
			</g>
			<g>
				<rect x="283.339" y="16.299" style="fill:#4a5634;" width="66.77" height="66.772"/>
				<path style="fill:#feffda;" d="M350.108,16.299v66.772c-18.438,0-33.385-14.947-33.385-33.387
					C316.724,31.247,331.671,16.299,350.108,16.299z"/>
			</g>
			<g>
				<rect x="216.568" y="16.299" style="fill:#202419;" width="66.771" height="66.77"/>
				<path style="fill:#c2cbaf;" d="M283.339,16.299v66.77c-18.439,0-33.386-14.948-33.386-33.385S264.9,16.299,283.339,16.299z"/>
			</g>
			<g>
				<rect x="149.798" y="16.299" style="fill:#feffda;" width="66.77" height="66.77"/>
				<path style="fill:#4a5634;" d="M216.568,83.069h-66.77c0-18.438,14.947-33.385,33.387-33.385
					C201.621,49.684,216.568,64.632,216.568,83.069z"/>
			</g>
			<g>
				<rect x="83.028" y="16.299" style="fill:#202419;" width="66.77" height="66.772"/>
				<path style="fill:#c2cbaf;" d="M149.798,16.299v66.772c-18.438,0-33.385-14.947-33.385-33.387
					C116.413,31.247,131.361,16.299,149.798,16.299z"/>
			</g>
			<g>
				<rect x="16.258" y="16.299" style="fill:#c2cbaf;" width="66.77" height="66.772"/>
				<path style="fill:#feffda;" d="M16.258,83.071V16.299c18.438,0,33.385,14.947,33.385,33.385
					C49.643,68.124,34.696,83.071,16.258,83.071z"/>
			</g>
		</g>
	</g>
</g>
</svg>
